<?xml version="1.0" standalone="no"?>
<!DOCTYPE svg PUBLIC "-//W3C//DTD SVG 20010904//EN"
 "http://www.w3.org/TR/2001/REC-SVG-20010904/DTD/svg10.dtd">
<svg version="1.0" xmlns="http://www.w3.org/2000/svg"
 width="400.000000pt" height="552.000000pt" viewBox="0 0 400.000000 552.000000"
 preserveAspectRatio="xMidYMid meet">

<g transform="translate(0.000000,552.000000) scale(0.100000,-0.100000)"
fill="#000000" stroke="none">
<path d="M1882 5495 c0 -16 2 -22 5 -12 2 9 2 23 0 30 -3 6 -5 -1 -5 -18z"/>
<path d="M1932 5495 c0 -16 2 -22 5 -12 2 9 2 23 0 30 -3 6 -5 -1 -5 -18z"/>
<path d="M1831 5448 c-1 -24 3 -28 24 -28 21 0 25 -5 25 -30 0 -19 -7 -33 -21
-40 -27 -15 -51 -73 -43 -104 3 -13 19 -36 34 -51 26 -25 33 -27 77 -21 26 4
58 8 71 9 19 2 20 4 7 14 -11 7 -12 13 -6 18 6 3 11 24 11 47 0 32 -7 47 -35
75 -43 43 -48 83 -10 83 21 0 25 4 24 28 -2 23 -2 24 -6 5 -3 -16 -11 -23 -29
-23 -23 0 -24 -2 -24 -80 l0 -80 36 0 c28 0 35 -3 32 -17 -3 -15 -16 -18 -82
-21 -57 -2 -82 1 -87 10 -14 22 -10 27 24 30 l32 3 3 78 c3 76 3 77 -22 77
-18 0 -26 6 -29 23 -4 19 -4 18 -6 -5z"/>
<path d="M1620 5236 c0 -2 7 -7 16 -10 8 -3 12 -2 9 4 -6 10 -25 14 -25 6z"/>
<path d="M2180 5225 c-19 -22 -8 -25 13 -3 9 10 13 18 8 18 -5 0 -14 -7 -21
-15z"/>
<path d="M1532 5218 c-7 -7 -12 -16 -12 -22 0 -5 6 -1 14 9 8 11 19 16 30 12
10 -4 15 -3 11 3 -8 14 -28 13 -43 -2z"/>
<path d="M1595 5219 c-4 -6 -5 -12 -2 -15 2 -3 7 2 10 11 7 17 1 20 -8 4z"/>
<path d="M1676 5221 c-4 -5 3 -7 14 -4 23 6 26 13 6 13 -8 0 -17 -4 -20 -9z"/>
<path d="M2250 5215 c-19 -22 -8 -25 13 -3 9 10 13 18 8 18 -5 0 -14 -7 -21
-15z"/>
<path d="M1745 5210 c-4 -6 -12 -7 -18 -3 -7 4 -4 -5 6 -20 17 -26 17 -27 0
-28 -10 0 -5 -5 11 -10 17 -4 32 -6 35 -4 2 3 -2 5 -9 5 -9 0 -8 4 5 13 17 13
17 14 -5 13 -31 -1 -37 22 -8 33 16 7 18 10 6 10 -9 1 -20 -4 -23 -9z"/>
<path d="M2058 5213 c7 -3 16 -2 19 1 4 3 -2 6 -13 5 -11 0 -14 -3 -6 -6z"/>
<path d="M2101 5204 c0 -11 3 -14 6 -6 3 7 2 16 -1 19 -3 4 -6 -2 -5 -13z"/>
<path d="M2151 5204 c0 -11 3 -14 6 -6 3 7 2 16 -1 19 -3 4 -6 -2 -5 -13z"/>
<path d="M2028 5187 c-3 -19 -2 -25 4 -19 6 6 8 18 6 28 -3 14 -5 12 -10 -9z"/>
<path d="M1834 5187 c13 -9 16 -20 11 -40 -6 -23 -10 -25 -27 -16 -11 6 -22 8
-25 6 -2 -3 5 -8 16 -12 12 -3 21 -15 21 -26 0 -19 -1 -19 -31 -4 -17 9 -33
14 -35 12 -3 -2 9 -10 26 -17 17 -7 35 -20 40 -29 7 -12 9 -8 10 19 0 19 6 47
14 62 13 24 12 28 -3 42 -10 9 -21 16 -26 16 -5 0 -1 -6 9 -13z"/>
<path d="M2355 5175 c0 -13 3 -21 8 -18 4 2 7 10 7 18 0 8 -3 16 -7 18 -5 3
-8 -5 -8 -18z"/>
<path d="M1676 5178 c3 -4 -15 -9 -38 -11 -42 -3 -42 -4 8 -5 31 -1 56 3 62
11 8 9 5 12 -13 12 -13 0 -21 -3 -19 -7z"/>
<path d="M1498 5160 c-10 -11 -13 -22 -8 -25 6 -4 10 -2 10 4 0 6 6 8 13 6 6
-3 26 0 42 5 29 9 28 10 -7 5 -31 -5 -37 -3 -32 10 8 19 3 18 -18 -5z"/>
<path d="M2065 5171 c-17 -7 -16 -9 9 -15 16 -4 31 -5 34 -1 3 3 -2 5 -12 5
-9 0 -14 5 -11 10 7 11 7 11 -20 1z"/>
<path d="M2115 5170 c3 -5 31 -10 62 -10 70 0 66 5 -10 14 -39 4 -56 3 -52 -4z"/>
<path d="M1420 5166 c0 -2 7 -7 16 -10 8 -3 12 -2 9 4 -6 10 -25 14 -25 6z"/>
<path d="M1960 5154 c8 -10 15 -20 16 -22 1 -2 5 1 8 7 4 5 -4 15 -16 22 -22
12 -22 11 -8 -7z"/>
<path d="M2248 5153 c6 -2 18 -2 25 0 6 3 1 5 -13 5 -14 0 -19 -2 -12 -5z"/>
<path d="M2300 5149 c-13 -9 -12 -10 3 -5 9 3 17 1 17 -4 0 -8 44 -27 46 -19
0 2 15 -13 33 -33 21 -24 38 -35 52 -33 11 2 17 0 14 -6 -4 -5 -11 -7 -16 -4
-12 8 -11 -2 2 -27 18 -33 12 -112 -11 -157 -11 -23 -18 -41 -15 -41 9 0 45
79 45 100 0 26 11 25 44 -5 14 -13 26 -21 26 -17 -1 13 -25 38 -42 45 -24 8
-23 28 2 55 16 17 33 22 78 24 l57 1 -60 6 c-45 5 -63 3 -71 -8 -13 -17 -48
-7 -42 12 3 8 36 13 106 15 56 1 102 6 102 10 0 4 -50 7 -111 7 -98 0 -112 2
-125 19 -10 14 -14 16 -14 5 -1 -19 -40 28 -41 50 0 13 -2 13 -8 -2 -6 -17 -8
-17 -30 2 -13 12 -24 21 -25 21 -1 0 -8 -5 -16 -11z m190 -153 c0 -3 -4 -8
-10 -11 -5 -3 -10 -1 -10 4 0 6 5 11 10 11 6 0 10 -2 10 -4z"/>
<path d="M1926 5129 c13 -14 19 -39 22 -87 l3 -67 -20 23 c-10 12 -25 22 -32
22 -7 0 -9 -3 -6 -7 4 -3 1 -13 -6 -22 -11 -14 -10 -14 6 -2 29 23 52 -8 66
-89 14 -84 14 -93 1 -85 -5 3 -10 -1 -10 -11 0 -13 -3 -14 -15 -4 -12 10 -11
5 2 -29 13 -33 19 -39 30 -30 22 19 24 6 8 -47 l-15 -50 -47 2 -48 2 -17 48
c-9 27 -15 50 -13 52 2 2 12 -1 23 -7 17 -9 20 -7 24 17 2 18 -3 35 -15 47
-14 15 -17 29 -13 60 l5 40 -10 -35 c-9 -27 -8 -40 5 -61 9 -15 16 -35 16 -46
-1 -14 -9 -9 -34 21 -33 38 -33 39 -20 84 8 25 13 61 13 81 -1 20 -3 29 -6 20
-3 -12 -24 -20 -79 -28 -40 -6 -125 -28 -186 -48 -62 -21 -119 -37 -126 -36
-8 0 -6 -9 7 -31 19 -30 16 -56 -8 -76 -4 -3 2 -21 11 -40 10 -19 18 -29 18
-22 0 6 5 12 10 12 12 0 13 -60 1 -78 -4 -7 -12 -12 -17 -11 -26 5 -45 -4 -60
-26 -15 -23 -15 -27 1 -51 19 -30 21 -27 -28 -41 -35 -10 -37 -10 -32 7 5 15
2 17 -14 13 -12 -3 -32 -2 -47 1 -22 6 -24 9 -13 22 7 9 24 20 36 25 13 5 22
14 21 21 -2 9 9 13 34 12 l37 -1 -20 36 c-24 44 -24 50 -1 44 16 -4 18 0 15
24 -3 21 3 36 22 57 25 27 26 29 9 55 -38 57 -49 88 -49 142 0 44 6 64 28 97
l27 42 -26 -12 c-22 -11 -28 -10 -40 7 -8 10 -14 14 -14 9 0 -6 5 -15 12 -22
9 -9 7 -12 -11 -12 -32 0 -61 18 -62 38 0 11 -2 12 -6 4 -3 -7 1 -20 8 -28 11
-14 5 -15 -54 -13 -37 1 -70 -1 -74 -4 -6 -6 131 -12 185 -7 14 1 22 -4 22
-15 0 -21 -27 -30 -44 -16 -9 7 -38 11 -73 8 l-58 -3 63 -2 c45 -1 64 -6 68
-17 5 -11 11 -12 25 -4 19 10 28 -4 10 -16 -5 -3 -7 -21 -5 -41 3 -23 1 -33
-6 -29 -6 4 -8 11 -5 16 4 5 -1 9 -9 9 -8 0 -20 8 -25 18 -6 9 -11 12 -11 6 0
-7 11 -22 25 -35 29 -28 31 -44 9 -57 -9 -5 -15 -13 -15 -18 1 -5 -32 -12 -72
-15 -89 -8 -131 -20 -220 -67 -37 -19 -69 -33 -72 -31 -2 3 -8 16 -14 29 -5
14 -10 18 -10 10 0 -8 10 -33 22 -55 l23 -40 -20 -42 c-22 -44 -42 -51 -40
-15 0 11 -4 20 -10 19 -5 -1 -18 14 -28 33 -13 24 -16 27 -12 10 4 -14 18 -42
31 -62 18 -30 20 -38 8 -38 -14 0 -35 -29 -35 -48 0 -5 15 -13 34 -16 45 -9
86 -42 86 -70 0 -25 28 -56 51 -56 8 0 21 -6 29 -12 12 -11 12 -10 2 4 -17 21
1 33 19 12 20 -24 88 -56 112 -52 12 2 26 12 32 23 23 45 25 46 55 23 45 -33
87 -28 127 15 22 25 33 47 33 67 0 35 17 40 29 8 24 -62 108 -96 156 -64 14 9
31 28 37 42 14 31 20 30 56 -6 44 -43 92 -42 138 4 21 21 34 44 34 60 0 39 36
35 44 -5 3 -17 19 -44 35 -60 62 -61 163 -20 165 68 1 27 6 39 19 41 13 3 17
-3 17 -28 0 -17 -6 -33 -14 -36 -12 -5 -11 -12 6 -40 11 -19 28 -39 38 -44 48
-26 128 6 150 60 7 17 15 30 19 30 4 0 12 -19 18 -43 23 -83 103 -119 155 -69
26 23 42 19 52 -15 4 -13 18 -26 31 -29 27 -7 84 18 111 47 20 22 34 25 34 5
0 -21 49 -7 66 20 9 13 13 28 9 34 -4 6 1 21 12 33 l18 22 -22 -19 c-31 -26
-53 -14 -53 28 0 25 6 38 19 46 14 7 21 6 24 -3 3 -9 7 -9 18 -1 29 22 48 23
75 2 l27 -21 -13 22 c-6 13 -10 36 -8 51 3 19 0 26 -8 23 -7 -2 -15 5 -19 17
-4 12 -9 19 -12 17 -2 -3 1 -16 9 -29 7 -12 13 -30 14 -40 2 -28 -24 -9 -46
35 l-22 41 22 39 c12 21 20 41 17 43 -3 3 -8 -4 -12 -15 -6 -19 -8 -19 -53 10
-69 43 -158 71 -240 77 -49 3 -75 9 -79 18 -3 8 -12 14 -21 14 -13 0 -13 -2 3
-14 22 -16 14 -48 -12 -45 -10 0 -25 1 -33 0 -12 -1 -12 -4 3 -12 19 -11 23
-34 7 -44 -14 -9 -42 14 -33 28 4 6 1 7 -7 2 -10 -6 -12 -4 -7 9 4 10 3 15 -3
11 -6 -3 -7 -17 -4 -31 8 -31 -13 -32 -27 0 -9 18 -8 29 5 49 l17 25 -88 32
c-85 31 -245 70 -290 70 -18 0 -22 7 -26 43 l-4 42 -1 -50 c-1 -27 4 -76 12
-108 13 -56 13 -58 -13 -92 -14 -19 -29 -34 -33 -35 -14 0 -8 37 8 51 12 10
14 22 10 49 -4 19 -11 88 -15 152 -6 84 -13 121 -24 132 -23 24 -33 19 -11 -5z
m-536 -75 c0 -8 -19 -13 -24 -6 -3 5 1 9 9 9 8 0 15 -2 15 -3z m0 -224 c32
-47 35 -56 13 -37 -11 9 -24 17 -30 17 -6 0 -9 8 -6 18 2 10 -2 24 -10 31 -9
7 -13 21 -9 34 5 20 6 19 15 -8 5 -17 17 -41 27 -55z m-35 0 c0 -14 9 -26 23
-31 23 -9 30 -33 12 -44 -14 -9 -41 14 -38 31 2 7 -6 19 -16 27 -12 9 -17 20
-13 31 10 24 32 14 32 -14z m1083 -124 c2 -28 7 -36 18 -32 18 7 18 -8 -1 -44
-13 -26 -18 -28 -57 -23 -24 3 -45 7 -46 9 -2 1 -6 21 -9 43 -4 27 -2 41 6 41
6 0 11 -6 11 -12 1 -7 8 1 17 17 30 57 56 57 61 1z m-590 -60 c20 -12 15 -84
-7 -96 -30 -16 -84 -13 -78 4 4 9 -4 16 -21 20 -15 3 -34 10 -42 16 -13 9 -13
11 0 20 8 6 28 13 43 17 21 4 27 11 24 23 -4 14 1 16 33 10 20 -4 42 -10 48
-14z m206 -1 c-5 -11 1 -15 18 -15 30 0 63 -23 54 -38 -3 -6 -20 -13 -37 -17
-20 -5 -29 -11 -25 -21 4 -10 -4 -14 -30 -14 -56 0 -74 15 -74 60 0 44 17 59
67 60 25 0 31 -4 27 -15z m-510 -30 c-5 -12 2 -15 29 -15 48 0 55 -16 18 -38
-17 -9 -29 -23 -26 -29 3 -9 -8 -13 -38 -13 l-43 0 1 47 c1 41 4 48 26 54 37
11 39 10 33 -6z m793 -7 c9 -7 10 -16 2 -29 -6 -13 -6 -25 1 -39 10 -19 8 -20
-34 -20 -32 0 -44 4 -41 13 3 6 -10 19 -28 27 -43 20 -41 34 6 38 25 2 37 8
37 18 0 16 33 11 57 -8z m176 -19 c-9 -9 -4 -17 20 -33 41 -28 40 -40 -5 -44
-21 -2 -38 -7 -38 -13 0 -12 -22 -12 -55 1 -24 9 -25 11 -11 26 9 8 16 26 16
39 0 26 11 33 55 34 22 1 26 -2 18 -10z m-1530 -16 c9 26 37 -15 37 -54 0 -31
-4 -39 -18 -39 -11 0 -27 9 -37 20 -10 11 -36 25 -57 32 -44 13 -47 21 -16 42
18 13 26 13 54 1 24 -10 34 -11 37 -2z m713 -27 c7 -29 -1 -46 -21 -46 -16 0
-31 43 -20 59 11 19 34 12 41 -13z m-540 -26 c40 0 44 -13 10 -36 -15 -9 -22
-21 -19 -30 8 -23 -79 -19 -101 5 -22 24 -13 43 32 69 30 17 38 18 40 7 2 -10
16 -15 38 -15z m1632 -33 c6 -31 -17 -47 -69 -47 -45 0 -66 13 -37 22 7 3 0
11 -16 19 -46 22 -44 39 3 39 34 0 39 3 34 17 -5 13 2 12 38 -8 24 -13 45 -32
47 -42z m-1532 -23 c8 -33 -9 -52 -31 -34 -15 13 -20 42 -8 53 14 15 33 6 39
-19z m1354 7 c0 -29 -11 -51 -25 -51 -18 0 -24 21 -14 48 10 27 39 29 39 3z"/>
<path d="M2030 5140 c-8 -5 -10 -10 -5 -10 6 0 17 5 25 10 8 5 11 10 5 10 -5
0 -17 -5 -25 -10z"/>
<path d="M2418 5132 c-3 -11 0 -19 7 -19 7 0 10 8 7 19 -2 10 -6 18 -7 18 -1
0 -5 -8 -7 -18z"/>
<path d="M1882 5128 c-7 -7 -11 -21 -11 -32 1 -21 1 -21 6 -1 3 11 10 26 15
33 13 15 6 16 -10 0z"/>
<path d="M1142 5118 c-15 -15 -16 -35 -2 -43 6 -4 7 1 3 11 -4 11 1 22 12 30
10 8 14 14 9 14 -6 0 -15 -5 -22 -12z"/>
<path d="M1212 5118 c-15 -15 -16 -35 -2 -43 6 -4 7 1 3 11 -4 11 1 22 12 30
10 8 14 14 9 14 -6 0 -15 -5 -22 -12z"/>
<path d="M1460 5121 c-8 -6 -18 -7 -22 -5 -4 3 -8 0 -8 -5 0 -15 13 -14 36 4
21 16 17 20 -6 6z"/>
<path d="M1603 5123 c20 -2 54 -2 75 0 20 2 3 4 -38 4 -41 0 -58 -2 -37 -4z"/>
<path d="M1991 5121 c-7 -5 -12 -14 -10 -20 2 -6 10 -2 17 9 14 22 13 23 -7
11z"/>
<path d="M2147 5123 c18 -2 50 -2 70 0 21 2 7 4 -32 4 -38 0 -55 -2 -38 -4z"/>
<path d="M2572 5118 c-15 -15 -16 -35 -2 -43 6 -4 7 1 3 11 -4 11 1 22 12 30
10 8 14 14 9 14 -6 0 -15 -5 -22 -12z"/>
<path d="M1520 5110 c-18 -12 -2 -12 25 0 13 6 15 9 5 9 -8 0 -22 -4 -30 -9z"/>
<path d="M1728 5113 c7 -3 16 -2 19 1 4 3 -2 6 -13 5 -11 0 -14 -3 -6 -6z"/>
<path d="M1895 5109 c-4 -6 -4 -13 -1 -16 3 -4 6 -1 6 6 0 8 6 11 16 7 8 -3
12 -2 9 4 -8 13 -22 13 -30 -1z"/>
<path d="M2268 5113 c7 -3 16 -2 19 1 4 3 -2 6 -13 5 -11 0 -14 -3 -6 -6z"/>
<path d="M1063 5095 c-3 -9 -3 -18 -1 -21 3 -3 8 4 11 16 6 23 -1 27 -10 5z"/>
<path d="M1107 5089 c4 -13 8 -18 11 -10 2 7 -1 18 -6 23 -8 8 -9 4 -5 -13z"/>
<path d="M2301 5106 c2 -2 15 -9 29 -15 24 -11 24 -11 6 3 -16 13 -49 24 -35
12z"/>
<path d="M1474 5084 c-18 -14 -18 -15 4 -4 12 6 22 13 22 15 0 8 -5 6 -26 -11z"/>
<path d="M2015 5090 c-3 -6 1 -7 9 -4 18 7 21 14 7 14 -6 0 -13 -4 -16 -10z"/>
<path d="M2780 5075 c-19 -22 -8 -25 13 -3 9 10 13 18 8 18 -5 0 -14 -7 -21
-15z"/>
<path d="M2378 5058 c13 -14 30 -43 37 -65 8 -21 14 -30 15 -20 0 25 -24 69
-51 92 l-24 20 23 -27z"/>
<path d="M2822 5060 c0 -14 2 -19 5 -12 2 6 2 18 0 25 -3 6 -5 1 -5 -13z"/>
<path d="M1892 5058 c-7 -7 -12 -17 -12 -22 0 -6 5 -3 11 7 14 23 28 21 39 -5
5 -14 9 -17 9 -7 1 15 -17 39 -29 39 -3 0 -11 -5 -18 -12z"/>
<path d="M2716 5058 c2 -3 -1 -8 -8 -11 -7 -2 -2 -2 12 0 34 6 44 18 15 18
-12 0 -21 -3 -19 -7z"/>
<path d="M1090 5050 c8 -5 22 -10 30 -10 13 0 13 1 0 10 -8 5 -22 10 -30 10
-13 0 -13 -1 0 -10z"/>
<path d="M950 5046 c0 -2 9 -6 20 -9 11 -3 18 -1 14 4 -5 9 -34 13 -34 5z"/>
<path d="M1412 5030 c-7 -11 -12 -25 -12 -32 0 -7 7 0 15 16 18 33 15 45 -3
16z"/>
<path d="M1863 4985 c0 -38 2 -53 4 -32 2 20 2 52 0 70 -2 17 -4 1 -4 -38z"/>
<path d="M2843 5038 c-16 -20 -12 -44 10 -57 11 -8 16 -8 12 -2 -3 6 0 11 7
12 7 0 2 4 -10 10 -28 11 -24 34 6 33 12 0 19 3 16 8 -8 12 -30 10 -41 -4z"/>
<path d="M2740 5033 c8 -3 31 -12 50 -20 33 -13 34 -13 18 3 -9 9 -32 18 -50
20 -18 1 -26 0 -18 -3z"/>
<path d="M930 5016 c0 -9 -7 -12 -19 -9 -10 3 -22 0 -25 -6 -5 -7 -1 -8 10 -4
25 9 48 -25 31 -46 -6 -8 5 -2 25 14 42 33 48 46 18 38 -11 -3 -18 -9 -15 -13
3 -5 1 -11 -5 -15 -10 -6 -14 6 -11 38 1 9 0 17 -3 17 -3 0 -6 -6 -6 -14z"/>
<path d="M1014 5014 c-19 -15 -19 -15 1 -6 11 5 27 12 35 15 13 5 13 6 -1 6
-8 1 -24 -6 -35 -15z"/>
<path d="M1138 5013 c6 -2 18 -2 25 0 6 3 1 5 -13 5 -14 0 -19 -2 -12 -5z"/>
<path d="M2663 5013 c9 -2 23 -2 30 0 6 3 -1 5 -18 5 -16 0 -22 -2 -12 -5z"/>
<path d="M1098 5003 c7 -3 16 -2 19 1 4 3 -2 6 -13 5 -11 0 -14 -3 -6 -6z"/>
<path d="M2925 4996 c11 -8 16 -20 12 -29 -3 -9 -3 -18 1 -21 4 -3 9 5 9 17 2
23 -13 47 -30 47 -6 0 -2 -6 8 -14z"/>
<path d="M1050 4990 c-8 -5 -10 -10 -5 -10 6 0 17 5 25 10 8 5 11 10 5 10 -5
0 -17 -5 -25 -10z"/>
<path d="M1392 4955 c0 -16 2 -22 5 -12 2 9 2 23 0 30 -3 6 -5 -1 -5 -18z"/>
<path d="M2790 4976 c0 -2 7 -7 16 -10 8 -3 12 -2 9 4 -6 10 -25 14 -25 6z"/>
<path d="M3690 4976 c0 -2 8 -10 18 -17 15 -13 16 -12 3 4 -13 16 -21 21 -21
13z"/>
<path d="M2886 4962 c-3 -5 4 -18 17 -28 21 -19 21 -19 7 0 -8 11 -13 21 -12
23 2 3 1 7 -1 9 -3 3 -8 1 -11 -4z"/>
<path d="M1887 4949 c7 -7 15 -10 18 -7 3 3 -2 9 -12 12 -14 6 -15 5 -6 -5z"/>
<path d="M2861 4924 c19 -22 36 -39 39 -37 2 2 -13 20 -35 41 l-39 37 35 -41z"/>
<path d="M3619 4933 l-24 -28 28 24 c25 23 32 31 24 31 -2 0 -14 -12 -28 -27z"/>
<path d="M833 4934 c-3 -8 -2 -19 3 -24 5 -5 9 1 9 16 0 28 -3 30 -12 8z"/>
<path d="M954 4928 l-19 -23 23 19 c21 18 27 26 19 26 -2 0 -12 -10 -23 -22z"/>
<path d="M2414 4905 c-5 -24 -7 -42 -2 -39 8 5 23 73 16 79 -2 2 -8 -16 -14
-40z"/>
<path d="M3730 4946 c0 -2 8 -10 18 -17 15 -13 16 -12 3 4 -13 16 -21 21 -21
13z"/>
<path d="M905 4920 c-4 -6 -11 -7 -17 -4 -7 4 -8 2 -4 -4 8 -14 -24 -73 -36
-66 -4 3 -5 -2 -1 -11 4 -12 8 -13 13 -4 6 9 9 9 13 -2 2 -8 2 -3 0 9 -2 15 0
21 7 17 5 -3 10 0 10 7 0 7 7 25 14 41 14 26 14 39 1 17z"/>
<path d="M1871 4895 c-1 -28 22 -55 48 -55 12 0 20 4 16 9 -3 5 -1 12 5 16 5
3 10 14 9 23 0 12 -3 10 -10 -6 -12 -32 -51 -26 -60 8 -6 20 -7 21 -8 5z"/>
<path d="M2932 4878 c10 -29 7 -105 -7 -143 -6 -19 -6 -19 5 -2 17 27 30 129
18 144 -5 7 -7 16 -4 21 3 5 -1 9 -8 9 -11 0 -12 -7 -4 -29z"/>
<path d="M3574 4878 l-19 -23 23 19 c12 11 22 21 22 23 0 8 -8 2 -26 -19z"/>
<path d="M2970 4866 c-9 -24 10 -113 22 -101 4 4 0 22 -8 40 -18 44 -18 50 1
35 12 -10 18 -10 30 0 16 14 20 36 7 44 -5 3 -8 -5 -8 -17 1 -13 -5 -22 -14
-22 -9 0 -15 9 -14 23 1 28 -4 28 -16 -2z"/>
<path d="M78 4848 c4 -28 6 -30 12 -13 4 11 6 23 3 27 -2 4 4 5 14 2 15 -5 16
-4 3 5 -27 19 -37 12 -32 -21z"/>
<path d="M2903 4825 c0 -27 2 -38 4 -22 2 15 2 37 0 50 -2 12 -4 0 -4 -28z"/>
<path d="M912 4825 c0 -16 2 -22 5 -12 2 9 2 23 0 30 -3 6 -5 -1 -5 -18z"/>
<path d="M3524 4818 l-19 -23 23 19 c12 11 22 21 22 23 0 8 -8 2 -26 -19z"/>
<path d="M3729 4823 c-13 -16 -12 -17 4 -4 16 13 21 21 13 21 -2 0 -10 -8 -17
-17z"/>
<path d="M195 4810 c10 -11 20 -20 23 -20 3 0 -3 9 -13 20 -10 11 -20 20 -23
20 -3 0 3 -9 13 -20z"/>
<path d="M824 4798 c1 -30 -22 -34 -33 -6 -6 15 -10 17 -10 7 -1 -26 26 -44
44 -29 13 10 15 9 15 -9 0 -12 -4 -20 -9 -17 -5 4 -7 -3 -4 -14 9 -33 23 -12
23 35 0 26 -5 45 -13 48 -9 3 -13 -2 -13 -15z"/>
<path d="M150 4785 c13 -14 26 -25 28 -25 3 0 -5 11 -18 25 -13 14 -26 25 -28
25 -3 0 5 -11 18 -25z"/>
<path d="M881 4774 c0 -11 3 -14 6 -6 3 7 2 16 -1 19 -3 4 -6 -2 -5 -13z"/>
<path d="M3484 4768 l-19 -23 23 19 c12 11 22 21 22 23 0 8 -8 2 -26 -19z"/>
<path d="M105 4758 c4 -13 11 -27 16 -33 5 -5 4 5 -2 23 -12 36 -24 44 -14 10z"/>
<path d="M255 4760 c10 -11 20 -20 23 -20 3 0 -3 9 -13 20 -10 11 -20 20 -23
20 -3 0 3 -9 13 -20z"/>
<path d="M3020 4770 c-9 -6 -10 -10 -3 -10 6 0 15 5 18 10 8 12 4 12 -15 0z"/>
<path d="M3679 4753 c-13 -16 -12 -17 4 -4 16 13 21 21 13 21 -2 0 -10 -8 -17
-17z"/>
<path d="M182 4704 c-3 -40 1 -48 39 -86 l42 -43 -37 43 c-24 28 -36 52 -36
72 0 17 3 30 7 30 4 0 25 -19 46 -42 38 -42 38 -42 -3 9 -23 29 -45 55 -48 57
-4 2 -8 -16 -10 -40z"/>
<path d="M890 4747 c0 -4 7 -21 15 -38 9 -16 13 -35 9 -42 -5 -9 -4 -9 5 -1
10 9 8 20 -8 50 -11 22 -20 35 -21 31z"/>
<path d="M2981 4737 c-6 -8 -12 -24 -13 -38 -2 -13 -7 -27 -12 -30 -4 -4 -3
-10 3 -13 6 -4 12 -1 12 6 3 29 4 33 14 35 6 0 9 -3 8 -7 -3 -9 35 -1 42 9 2
4 -6 7 -18 7 -17 -1 -22 5 -21 22 1 26 0 26 -15 9z"/>
<path d="M3434 4708 l-19 -23 23 19 c12 11 22 21 22 23 0 8 -8 2 -26 -19z"/>
<path d="M310 4707 c0 -2 15 -16 33 -33 l32 -29 -29 33 c-28 30 -36 37 -36 29z"/>
<path d="M809 4691 c9 -6 10 -11 2 -15 -6 -4 -11 -11 -11 -17 0 -5 8 -1 18 9
21 19 19 32 -6 32 -13 0 -14 -2 -3 -9z"/>
<path d="M3629 4683 c-13 -16 -12 -17 4 -4 16 13 21 21 13 21 -2 0 -10 -8 -17
-17z"/>
<path d="M3394 4658 l-19 -23 23 19 c21 18 27 26 19 26 -2 0 -12 -10 -23 -22z"/>
<path d="M380 4634 c0 -6 15 -23 33 -40 l32 -29 -30 35 c-16 19 -31 37 -32 39
-2 2 -3 0 -3 -5z"/>
<path d="M2960 4630 c-13 -8 -12 -10 3 -10 9 0 17 -5 17 -12 0 -6 3 -9 6 -5 3
3 2 12 -3 21 -6 10 -13 12 -23 6z"/>
<path d="M300 4605 c13 -14 26 -25 28 -25 3 0 -5 11 -18 25 -13 14 -26 25 -28
25 -3 0 5 -11 18 -25z"/>
<path d="M840 4615 c-19 -22 -8 -25 13 -3 9 10 13 18 8 18 -5 0 -14 -7 -21
-15z"/>
<path d="M3349 4603 l-24 -28 28 24 c25 23 32 31 24 31 -2 0 -14 -12 -28 -27z"/>
<path d="M3579 4613 c-13 -16 -12 -17 4 -4 16 13 21 21 13 21 -2 0 -10 -8 -17
-17z"/>
<path d="M310 4510 c29 -33 57 -63 64 -67 6 -4 -15 23 -48 60 -32 37 -61 67
-63 67 -3 0 18 -27 47 -60z"/>
<path d="M350 4545 c13 -14 26 -25 28 -25 3 0 -5 11 -18 25 -13 14 -26 25 -28
25 -3 0 5 -11 18 -25z"/>
<path d="M3304 4548 l-19 -23 23 19 c12 11 22 21 22 23 0 8 -8 2 -26 -19z"/>
<path d="M480 4515 c19 -19 36 -35 39 -35 3 0 -10 16 -29 35 -19 19 -36 35
-39 35 -3 0 10 -16 29 -35z"/>
<path d="M230 4536 c0 -2 8 -10 18 -17 15 -13 16 -12 3 4 -13 16 -21 21 -21
13z"/>
<path d="M2938 4533 c6 -2 18 -2 25 0 6 3 1 5 -13 5 -14 0 -19 -2 -12 -5z"/>
<path d="M3509 4513 c-13 -16 -12 -17 4 -4 9 7 17 15 17 17 0 8 -8 3 -21 -13z"/>
<path d="M400 4485 c13 -14 26 -25 28 -25 3 0 -5 11 -18 25 -13 14 -26 25 -28
25 -3 0 5 -11 18 -25z"/>
<path d="M3254 4488 l-19 -23 23 19 c21 18 27 26 19 26 -2 0 -12 -10 -23 -22z"/>
<path d="M285 4470 c10 -11 20 -20 23 -20 3 0 -3 9 -13 20 -10 11 -20 20 -23
20 -3 0 3 -9 13 -20z"/>
<path d="M1894 4449 c-46 -50 -125 -64 -179 -31 -30 19 -30 19 -64 -7 -49 -37
-119 -37 -158 1 l-29 28 -17 -29 c-27 -45 -81 -66 -140 -54 -45 9 -51 8 -73
-14 -14 -14 -36 -23 -56 -24 -18 0 -28 -3 -21 -5 7 -3 10 -11 7 -18 -10 -26
23 -40 69 -28 l42 11 -46 -6 c-30 -3 -49 -1 -54 7 -10 16 -3 21 62 36 200 48
564 80 793 69 249 -11 584 -59 619 -88 11 -9 13 -9 8 0 -4 6 -1 14 5 16 7 3 0
6 -16 6 -17 1 -41 12 -56 26 -23 22 -30 24 -60 15 -57 -17 -106 -3 -142 40
l-32 37 -25 -23 c-48 -44 -126 -40 -171 8 -17 19 -18 19 -51 -1 -59 -36 -146
-22 -182 29 -14 20 -14 20 -33 -1z"/>
<path d="M560 4425 c19 -19 36 -35 39 -35 3 0 -10 16 -29 35 -19 19 -36 35
-39 35 -3 0 10 -16 29 -35z"/>
<path d="M3214 4438 l-19 -23 23 19 c12 11 22 21 22 23 0 8 -8 2 -26 -19z"/>
<path d="M3459 4443 c-13 -16 -12 -17 4 -4 16 13 21 21 13 21 -2 0 -10 -8 -17
-17z"/>
<path d="M450 4425 c13 -14 26 -25 28 -25 3 0 -5 11 -18 25 -13 14 -26 25 -28
25 -3 0 5 -11 18 -25z"/>
<path d="M335 4410 c10 -11 20 -20 23 -20 3 0 -3 9 -13 20 -10 11 -20 20 -23
20 -3 0 3 -9 13 -20z"/>
<path d="M380 4427 c0 -2 15 -16 33 -33 l32 -29 -29 33 c-28 30 -36 37 -36 29z"/>
<path d="M3420 4390 c-12 -16 -19 -30 -16 -30 2 0 14 14 26 30 12 17 19 30 16
30 -2 0 -14 -13 -26 -30z"/>
<path d="M3169 4383 l-24 -28 28 24 c25 23 32 31 24 31 -2 0 -14 -12 -28 -27z"/>
<path d="M500 4365 c13 -14 26 -25 28 -25 3 0 -5 11 -18 25 -13 14 -26 25 -28
25 -3 0 5 -11 18 -25z"/>
<path d="M385 4350 c10 -11 20 -20 23 -20 3 0 -3 9 -13 20 -10 11 -20 20 -23
20 -3 0 3 -9 13 -20z"/>
<path d="M610 4367 c0 -2 15 -16 33 -33 l32 -29 -29 33 c-28 30 -36 37 -36 29z"/>
<path d="M440 4357 c0 -2 15 -16 33 -33 l32 -29 -29 33 c-28 30 -36 37 -36 29z"/>
<path d="M2709 4343 c-13 -16 -12 -17 4 -4 9 7 17 15 17 17 0 8 -8 3 -21 -13z"/>
<path d="M1798 4343 c61 -2 163 -2 225 0 61 1 11 3 -113 3 -124 0 -174 -2
-112 -3z"/>
<path d="M3124 4329 c-10 -11 -13 -19 -7 -17 18 5 163 -105 158 -121 -5 -11
-3 -11 10 -1 13 10 10 15 -19 35 -102 70 -135 99 -124 112 17 21 3 15 -18 -8z"/>
<path d="M1613 4333 c15 -2 37 -2 50 0 12 2 0 4 -28 4 -27 0 -38 -2 -22 -4z"/>
<path d="M2173 4333 c15 -2 37 -2 50 0 12 2 0 4 -28 4 -27 0 -38 -2 -22 -4z"/>
<path d="M550 4305 c13 -14 26 -25 28 -25 3 0 -5 11 -18 25 -13 14 -26 25 -28
25 -3 0 5 -11 18 -25z"/>
<path d="M1518 4323 c12 -2 32 -2 45 0 12 2 2 4 -23 4 -25 0 -35 -2 -22 -4z"/>
<path d="M2268 4323 c12 -2 30 -2 40 0 9 3 -1 5 -23 4 -22 0 -30 -2 -17 -4z"/>
<path d="M1453 4313 c9 -2 23 -2 30 0 6 3 -1 5 -18 5 -16 0 -22 -2 -12 -5z"/>
<path d="M1707 4313 c-10 -9 -9 -41 2 -47 4 -3 6 5 4 18 -4 19 0 25 18 29 21
4 22 4 3 6 -11 0 -24 -2 -27 -6z"/>
<path d="M1814 4305 c-12 -31 15 -45 90 -45 78 0 114 15 103 44 -9 23 -185 24
-193 1z"/>
<path d="M2072 4308 c-7 -7 -12 -17 -12 -22 0 -6 5 -3 11 7 11 19 34 23 44 7
4 -6 1 -19 -6 -28 -12 -16 -12 -16 6 0 15 14 16 20 5 32 -15 19 -32 20 -48 4z"/>
<path d="M2343 4313 c9 -2 25 -2 35 0 9 3 1 5 -18 5 -19 0 -27 -2 -17 -5z"/>
<path d="M3359 4303 c-13 -16 -12 -17 4 -4 16 13 21 21 13 21 -2 0 -10 -8 -17
-17z"/>
<path d="M440 4285 c13 -14 26 -25 28 -25 3 0 -5 11 -18 25 -13 14 -26 25 -28
25 -3 0 5 -11 18 -25z"/>
<path d="M1393 4303 c9 -2 23 -2 30 0 6 3 -1 5 -18 5 -16 0 -22 -2 -12 -5z"/>
<path d="M2413 4303 c9 -2 23 -2 30 0 6 3 -1 5 -18 5 -16 0 -22 -2 -12 -5z"/>
<path d="M1300 4290 c-20 -6 -21 -8 -5 -8 11 0 34 4 50 8 27 7 27 8 5 8 -14 0
-36 -4 -50 -8z"/>
<path d="M1516 4292 c-32 -8 -40 -20 -27 -40 6 -11 24 -12 77 -5 60 7 69 11
69 28 0 17 -7 20 -45 22 -25 0 -58 -2 -74 -5z"/>
<path d="M1747 4281 c-4 -17 -3 -21 5 -13 5 5 8 16 6 23 -3 8 -7 3 -11 -10z"/>
<path d="M2185 4290 c-13 -21 18 -38 82 -45 54 -6 64 -4 69 10 10 26 -9 37
-79 42 -45 4 -67 2 -72 -7z"/>
<path d="M2468 4293 c6 -2 18 -2 25 0 6 3 1 5 -13 5 -14 0 -19 -2 -12 -5z"/>
<path d="M3089 4283 c-13 -16 -12 -17 4 -4 16 13 21 21 13 21 -2 0 -10 -8 -17
-17z"/>
<path d="M500 4287 c0 -2 15 -16 33 -33 l32 -29 -29 33 c-28 30 -36 37 -36 29z"/>
<path d="M710 4255 c19 -19 36 -35 39 -35 3 0 -10 16 -29 35 -19 19 -36 35
-39 35 -3 0 10 -16 29 -35z"/>
<path d="M2518 4283 c6 -2 18 -2 25 0 6 3 1 5 -13 5 -14 0 -19 -2 -12 -5z"/>
<path d="M1393 4270 c9 -6 17 -17 17 -25 0 -8 -8 -19 -17 -24 -10 -6 -13 -11
-7 -11 6 0 17 7 25 16 14 18 3 45 -22 51 -8 3 -7 0 4 -7z"/>
<path d="M2415 4270 c-3 -6 1 -7 9 -4 18 7 21 14 7 14 -6 0 -13 -4 -16 -10z"/>
<path d="M2573 4273 c26 -7 21 -22 -10 -29 -58 -12 -60 -14 -32 -37 32 -27 28
-46 -9 -39 -34 6 -26 -3 11 -12 20 -5 27 -3 27 9 0 9 11 20 25 25 22 8 24 13
15 30 -14 25 -5 40 23 41 20 1 20 2 -3 9 -14 4 -34 8 -45 8 -16 0 -17 -1 -2
-5z"/>
<path d="M600 4245 c13 -14 26 -25 28 -25 3 0 -5 11 -18 25 -13 14 -26 25 -28
25 -3 0 5 -11 18 -25z"/>
<path d="M2456 4257 c3 -10 9 -15 12 -12 3 3 0 11 -7 18 -10 9 -11 8 -5 -6z"/>
<path d="M3059 4243 c-13 -16 -12 -17 4 -4 16 13 21 21 13 21 -2 0 -10 -8 -17
-17z"/>
<path d="M485 4230 c10 -11 20 -20 23 -20 3 0 -3 9 -13 20 -10 11 -20 20 -23
20 -3 0 3 -9 13 -20z"/>
<path d="M1223 4224 c-10 -22 -9 -26 12 -34 31 -12 38 -25 20 -40 -8 -7 -15
-18 -15 -26 0 -15 27 -44 42 -44 6 0 0 8 -13 18 -35 29 -19 49 53 63 34 7 58
14 52 16 -6 2 -30 0 -53 -6 -51 -11 -62 1 -31 34 24 26 23 27 -30 39 -20 4
-28 0 -37 -20z"/>
<path d="M3309 4233 c-13 -16 -12 -17 4 -4 16 13 21 21 13 21 -2 0 -10 -8 -17
-17z"/>
<path d="M1793 4223 c64 -2 170 -2 235 0 64 1 11 3 -118 3 -129 0 -182 -2
-117 -3z"/>
<path d="M560 4217 c0 -2 15 -16 33 -33 l32 -29 -29 33 c-28 30 -36 37 -36 29z"/>
<path d="M1608 4213 c12 -2 32 -2 45 0 12 2 2 4 -23 4 -25 0 -35 -2 -22 -4z"/>
<path d="M2178 4213 c12 -2 32 -2 45 0 12 2 2 4 -23 4 -25 0 -35 -2 -22 -4z"/>
<path d="M3029 4203 c-13 -16 -12 -17 4 -4 9 7 17 15 17 17 0 8 -8 3 -21 -13z"/>
<path d="M650 4185 c13 -14 26 -25 28 -25 3 0 -5 11 -18 25 -13 14 -26 25 -28
25 -3 0 5 -11 18 -25z"/>
<path d="M1528 4203 c12 -2 30 -2 40 0 9 3 -1 5 -23 4 -22 0 -30 -2 -17 -4z"/>
<path d="M2263 4203 c9 -2 25 -2 35 0 9 3 1 5 -18 5 -19 0 -27 -2 -17 -5z"/>
<path d="M790 4165 c19 -19 36 -35 39 -35 3 0 -10 16 -29 35 -19 19 -36 35
-39 35 -3 0 10 -16 29 -35z"/>
<path d="M1463 4193 c9 -2 23 -2 30 0 6 3 -1 5 -18 5 -16 0 -22 -2 -12 -5z"/>
<path d="M2333 4193 c9 -2 23 -2 30 0 6 3 -1 5 -18 5 -16 0 -22 -2 -12 -5z"/>
<path d="M540 4165 c13 -14 26 -25 28 -25 3 0 -5 11 -18 25 -13 14 -26 25 -28
25 -3 0 5 -11 18 -25z"/>
<path d="M1403 4183 c9 -2 23 -2 30 0 6 3 -1 5 -18 5 -16 0 -22 -2 -12 -5z"/>
<path d="M1605 4179 c-125 -15 -316 -52 -308 -60 11 -11 200 -46 328 -60 142
-17 440 -17 580 0 129 15 306 49 318 60 10 9 -115 34 -280 56 -119 16 -519 18
-638 4z"/>
<path d="M2415 4179 c51 -10 92 -10 50 1 -16 4 -43 8 -60 8 -25 0 -24 -2 10
-9z"/>
<path d="M2994 4158 l-19 -23 23 19 c12 11 22 21 22 23 0 8 -8 2 -26 -19z"/>
<path d="M3249 4153 c-13 -16 -12 -17 4 -4 16 13 21 21 13 21 -2 0 -10 -8 -17
-17z"/>
<path d="M620 4147 c0 -2 15 -16 33 -33 l32 -29 -29 33 c-28 30 -36 37 -36 29z"/>
<path d="M700 4125 c13 -14 26 -25 28 -25 3 0 -5 11 -18 25 -13 14 -26 25 -28
25 -3 0 5 -11 18 -25z"/>
<path d="M590 4105 c13 -14 26 -25 28 -25 3 0 -5 11 -18 25 -13 14 -26 25 -28
25 -3 0 5 -11 18 -25z"/>
<path d="M2959 4113 c-13 -16 -12 -17 4 -4 16 13 21 21 13 21 -2 0 -10 -8 -17
-17z"/>
<path d="M3219 4113 c-13 -16 -12 -17 4 -4 16 13 21 21 13 21 -2 0 -10 -8 -17
-17z"/>
<path d="M840 4107 c0 -2 15 -16 33 -33 l32 -29 -29 33 c-28 30 -36 37 -36 29z"/>
<path d="M753 4064 c16 -18 27 -42 27 -59 l0 -28 -22 19 -23 19 22 -25 23 -26
0 -811 c0 -877 1 -891 55 -1057 47 -143 140 -305 236 -410 28 -30 48 -60 44
-66 -3 -5 0 -8 7 -5 7 2 33 -13 57 -35 l44 -39 -107 6 c-100 6 -128 2 -165
-24 -3 -2 4 -10 15 -18 12 -9 14 -14 6 -15 -7 0 -10 -5 -6 -12 4 -7 3 -8 -5
-4 -6 4 -9 11 -6 16 3 4 -2 13 -10 20 -10 9 -15 9 -15 1 0 -6 -7 -11 -15 -11
-18 0 -20 21 -4 37 7 7 12 38 13 70 1 32 5 64 9 70 6 9 3 11 -7 7 -11 -4 -16
0 -16 11 0 14 -3 15 -15 5 -8 -6 -19 -9 -25 -5 -5 3 -10 1 -10 -4 0 -6 -7 -11
-15 -11 -19 0 -19 -5 1 -29 10 -11 23 -17 31 -14 8 3 20 -3 28 -13 22 -29 18
-41 -5 -16 -25 26 -35 28 -26 6 5 -13 4 -14 -7 -6 -8 7 -17 9 -21 5 -4 -4 -4
0 0 10 3 10 1 17 -5 17 -12 0 -14 -11 -11 -48 1 -13 -4 -31 -11 -40 -11 -14
-11 -15 1 -5 10 9 17 10 27 2 10 -9 8 -15 -12 -31 -14 -11 -22 -25 -18 -31 4
-7 0 -8 -11 -4 -10 4 -20 7 -23 7 -3 0 1 8 8 18 13 16 12 16 -6 1 -11 -9 -26
-14 -32 -12 -7 3 -13 2 -13 -1 0 -3 19 -10 43 -16 72 -19 74 -20 57 -30 -13
-9 -13 -10 0 -10 9 0 27 -21 40 -46 l25 -45 -24 -20 c-18 -14 -19 -19 -7 -19
9 0 16 4 16 9 0 5 10 11 23 13 14 2 22 10 22 23 1 11 4 26 8 32 5 9 3 11 -6 7
-24 -9 -28 12 -7 31 15 14 17 21 9 32 -7 8 -8 13 -1 13 5 0 15 -7 22 -15 10
-12 10 -18 -1 -32 -10 -13 -7 -12 11 2 55 46 61 50 58 34 -2 -10 10 -15 45
-17 26 -2 47 1 47 6 0 5 14 6 31 4 20 -3 29 -1 26 5 -4 6 4 8 18 5 20 -3 24
-1 19 12 -3 9 -1 16 5 16 6 0 11 -4 11 -10 0 -21 20 -9 21 13 0 20 1 20 8 3 5
-14 10 -16 15 -7 6 9 14 8 34 -5 61 -40 153 -84 236 -113 342 -120 729 -63
1030 153 77 56 79 56 100 39 21 -17 21 -17 4 2 -17 19 -16 21 24 62 l43 44 43
-48 44 -48 -41 51 -41 51 21 24 c12 13 28 34 36 47 13 19 18 20 32 10 14 -11
14 -11 3 3 -10 13 -8 23 14 55 40 58 109 200 133 274 56 171 54 143 58 1000 4
728 6 796 21 815 16 19 16 19 0 6 -17 -12 -18 -9 -18 53 l0 66 -71 0 c-53 0
-68 3 -63 13 6 9 5 9 -7 0 -11 -9 -261 -12 -1064 -12 l-1050 0 -35 32 -35 32
28 -31z m233 -220 c-4 -10 -23 -14 -63 -13 l-58 1 40 18 c37 18 41 18 60 2 20
-17 20 -17 2 4 -17 21 -17 23 0 59 l18 38 3 -48 c2 -26 1 -54 -2 -61z m957 13
c-18 -22 -18 -22 4 -4 21 18 22 18 60 -2 l38 -21 -60 3 -60 2 -2 60 -3 60 21
-38 c20 -38 20 -39 2 -60z m893 -13 c-4 -10 -23 -14 -63 -14 l-58 1 40 18 c37
17 42 17 60 2 19 -15 19 -14 4 3 -15 17 -15 21 0 57 l16 38 3 -46 c2 -25 1
-52 -2 -59z m35 11 c-15 -19 -15 -19 4 -4 19 15 23 15 60 -2 l40 -18 -60 2
-60 2 -3 60 -2 60 19 -40 c17 -37 17 -42 2 -60z m-1847 13 c-4 -6 -3 -8 3 -5
6 4 31 -2 54 -13 l44 -20 -60 2 -60 3 -2 55 -2 55 15 -33 c8 -18 11 -38 8 -44z
m882 -24 c-4 -10 -22 -14 -58 -13 l-53 0 42 22 c31 15 46 30 55 56 l13 36 3
-44 c2 -24 1 -50 -2 -57z m-919 -89 l2 -60 -18 40 c-17 37 -17 41 -2 60 15 19
15 19 -4 4 -18 -15 -23 -15 -60 2 l-40 19 60 -2 60 -3 2 -60z m93 48 c-26 -11
-39 -12 -53 -4 -15 10 -16 9 -6 -6 8 -14 7 -27 -4 -53 l-15 -35 -1 51 c-1 28
2 54 6 57 3 4 29 7 57 6 l51 -1 -35 -15z m827 -43 l2 -55 -16 43 c-10 24 -24
42 -33 42 -8 1 -26 7 -40 15 -24 14 -23 15 30 12 l55 -2 2 -55z m100 43 c-28
-11 -44 -28 -62 -62 l-24 -46 -1 57 c0 64 3 66 75 67 l50 0 -38 -16z m830 -43
l3 -55 -19 35 c-18 33 -18 36 -3 55 16 19 16 19 -3 3 -19 -15 -22 -15 -55 3
l-35 19 55 -3 55 -2 2 -55z m93 40 c-33 -17 -36 -17 -55 -2 -19 16 -19 16 -4
-3 15 -18 15 -23 -2 -60 l-18 -40 -1 56 c0 31 3 59 7 62 3 4 29 7 57 7 l51 -1
-35 -19z m-290 -802 c0 -680 -2 -700 -53 -828 -57 -140 -143 -247 -261 -327
-197 -134 -429 -165 -652 -89 -250 85 -440 315 -483 586 -7 40 -11 298 -11
678 l0 612 730 0 730 0 0 -632z m-1674 -144 c-4 -10 -23 -14 -63 -13 l-58 0
40 18 c37 17 41 17 60 2 19 -15 19 -15 3 4 -15 19 -15 23 0 60 l17 40 3 -49
c2 -27 1 -55 -2 -62z m1870 0 c-4 -10 -23 -14 -63 -14 l-58 1 40 18 c37 17 42
17 60 2 19 -15 19 -14 4 3 -15 17 -15 21 0 57 l16 38 3 -46 c2 -25 1 -52 -2
-59z m35 11 c-15 -19 -15 -19 4 -4 19 15 23 15 60 -2 l40 -18 -60 2 -60 2 -3
60 -2 60 19 -40 c17 -37 17 -42 2 -60z m-1812 -4 l46 -21 -60 3 -60 2 -2 55
-2 55 16 -37 c11 -27 26 -41 62 -57z m-92 -96 l2 -60 -18 40 c-17 37 -17 41
-2 60 15 19 15 19 -4 4 -19 -15 -23 -15 -60 2 l-40 18 60 -2 60 -2 2 -60z m95
47 c-28 -14 -36 -14 -55 -3 -21 13 -21 13 -5 -5 15 -18 15 -21 -2 -54 l-19
-35 -1 51 c0 28 3 54 7 57 3 4 29 7 57 6 l51 0 -33 -17z m1775 -42 l3 -55 -19
35 c-18 33 -18 36 -3 55 16 19 16 19 -3 4 -18 -15 -23 -15 -60 2 l-40 19 60
-2 60 -3 2 -55z m95 42 c-28 -14 -36 -14 -55 -3 -21 13 -21 13 -6 -5 15 -18
15 -22 -2 -59 l-18 -40 0 56 c-1 31 2 59 6 62 3 4 29 7 57 6 l51 0 -33 -17z
m-1699 -904 c14 -34 14 -38 -4 -54 -19 -17 -19 -16 -19 41 0 65 1 66 23 13z
m1387 17 c4 2 13 -9 20 -25 10 -24 10 -33 -1 -47 -13 -15 -12 -15 6 -4 16 10
27 9 55 -3 l35 -15 -53 -1 c-39 0 -54 4 -59 16 -5 13 -7 13 -14 2 -7 -10 -12
-10 -25 4 -16 16 -16 20 2 60 12 27 20 36 22 25 2 -10 7 -15 12 -12z m-1424
-81 c-4 -10 -22 -14 -58 -14 l-53 1 35 15 c28 12 39 13 55 3 18 -11 19 -10 7
4 -12 14 -12 22 0 54 l13 38 3 -44 c2 -24 1 -50 -2 -57z m104 1 c24 -14 24
-14 -22 -15 -45 0 -57 7 -41 23 10 11 36 8 63 -8z m1280 0 c11 -13 6 -15 -36
-15 -48 1 -48 1 -24 15 32 18 45 18 60 0z m-1390 -34 c0 -5 -6 -14 -14 -20
-12 -10 -24 -8 -58 7 l-43 20 58 1 c31 1 57 -3 57 -8z m107 -12 c-38 -20 -40
-20 -60 -2 -22 18 -22 18 -4 -4 18 -20 18 -22 -2 -60 l-20 -38 -1 56 c0 31 3
59 7 62 3 4 31 7 62 7 l56 -1 -38 -20z m1326 -2 c28 -22 29 -23 14 -57 -12
-27 -16 -30 -17 -15 -2 17 -3 16 -9 -5 -8 -24 -8 -24 -25 14 -15 37 -15 40 1
60 18 21 18 21 -3 3 -19 -16 -24 -16 -57 -2 -21 8 -37 17 -37 20 0 3 24 5 53
5 39 0 59 -6 80 -23z m107 18 c0 -3 -17 -12 -37 -20 -35 -15 -38 -14 -57 5
l-20 20 57 0 c31 0 57 -2 57 -5z m-1531 -62 l0 -48 -16 32 c-13 26 -14 35 -3
48 18 22 20 20 19 -32z m-292 -85 c0 -7 -11 -14 -24 -14 -13 -1 -23 2 -23 8 0
5 5 6 10 3 6 -3 10 -1 10 4 0 6 6 11 13 11 8 0 14 -6 14 -12z m-33 -89 c-4 -8
8 -13 27 -11 3 1 6 -6 6 -14 0 -7 -4 -14 -9 -14 -4 0 -8 5 -8 10 0 6 -5 10
-11 10 -5 0 -7 -4 -4 -10 11 -18 -1 -11 -21 12 -10 12 -13 18 -5 13 11 -6 13
-4 8 8 -4 11 -2 14 8 10 8 -3 12 -9 9 -14z m141 -57 c-3 -3 -11 0 -18 7 -9 10
-8 11 6 5 10 -3 15 -9 12 -12z m63 -9 c-2 -24 -12 -30 -23 -13 -3 6 -1 10 6
10 8 0 9 4 0 13 -8 10 -7 14 4 14 9 0 14 -9 13 -24z m82 17 c8 -5 11 -10 5
-10 -5 0 -17 5 -25 10 -8 5 -10 10 -5 10 6 0 17 -5 25 -10z m-274 -26 c-3 -9
-12 -14 -20 -11 -7 3 -18 1 -24 -5 -6 -6 -12 -6 -16 1 -4 6 0 11 8 11 9 0 16
6 17 13 0 10 2 10 6 0 5 -14 24 -18 22 -5 -3 15 1 25 7 19 4 -3 4 -14 0 -23z
m151 4 c-3 -8 -6 -5 -6 6 -1 11 2 17 5 13 3 -3 4 -12 1 -19z m160 -12 c-7 -17
-37 -22 -37 -6 0 5 6 7 14 4 11 -4 13 0 9 18 -5 18 -3 21 7 11 7 -6 10 -19 7
-27z m-85 -2 c-2 -10 -8 -21 -14 -23 -6 -2 -5 -7 3 -13 11 -8 11 -9 -1 -5 -16
4 -15 40 2 46 6 2 5 7 -3 13 -11 8 -11 9 1 5 8 -2 13 -12 12 -23z m38 6 c0 -5
-4 -10 -10 -10 -5 0 -10 5 -10 10 0 6 5 10 10 10 6 0 10 -4 10 -10z m-158 -32
c-8 -8 -9 -4 -5 13 4 13 8 18 11 10 2 -7 -1 -18 -6 -23z m43 14 c-3 -3 -11 0
-18 7 -9 10 -8 11 6 5 10 -3 15 -9 12 -12z m-95 4 c0 -9 -30 -14 -35 -6 -4 6
3 10 14 10 12 0 21 -2 21 -4z m-57 -26 c4 0 5 6 1 13 -5 7 0 6 11 -3 17 -14
17 -15 0 -18 -9 -2 -24 3 -31 12 -8 9 -9 11 -2 6 7 -6 16 -10 21 -10z m187 11
c0 -5 -7 -11 -14 -14 -10 -4 -13 -1 -9 9 6 15 23 19 23 5z m84 0 c4 -5 -3 -7
-14 -4 -23 6 -26 13 -6 13 8 0 17 -4 20 -9z m-229 -31 c-3 -5 -12 -10 -18 -10
-7 0 -6 4 3 10 19 12 23 12 15 0z m-20 -37 c27 -41 32 -63 13 -63 -6 0 -9 3
-5 6 3 4 -5 23 -18 43 -24 34 -30 51 -20 51 2 0 16 -17 30 -37z"/>
<path d="M1215 3051 c-9 -655 -5 -724 52 -864 23 -56 123 -221 130 -214 1 2
27 -20 56 -47 326 -307 876 -205 1076 199 78 157 74 124 78 838 l4 637 -694 0
-694 0 -8 -549z m779 336 c63 -129 80 -192 79 -297 0 -88 -10 -142 -66 -345
-34 -125 -41 -166 -41 -245 -1 -52 2 -110 6 -127 l8 -33 -71 0 c-62 0 -70 2
-65 18 25 90 15 203 -38 395 -47 170 -58 236 -58 337 1 126 44 248 140 393 19
29 28 35 38 26 7 -6 38 -61 68 -122z m-411 -514 c90 -28 180 -148 212 -284 8
-35 15 -106 15 -156 l0 -93 -40 0 c-40 0 -40 0 -40 38 0 67 -29 143 -70 184
-31 31 -45 38 -78 38 -57 0 -96 -35 -112 -100 -8 -35 -17 -50 -28 -50 -25 0
-115 45 -134 66 -53 60 -66 197 -24 262 72 112 159 140 299 95z m821 16 c50
-14 118 -83 141 -143 16 -42 17 -57 8 -112 -6 -35 -21 -77 -33 -94 -24 -34
-90 -75 -136 -85 -31 -6 -32 -5 -38 39 -5 29 -17 56 -36 76 -24 25 -35 30 -77
30 -42 0 -53 -5 -81 -32 -40 -42 -61 -93 -69 -168 l-6 -60 -38 0 -39 0 0 83
c0 147 36 265 108 359 72 96 187 137 296 107z m-210 -572 c12 -9 17 -23 14
-47 -5 -56 -21 -60 -298 -60 -277 0 -293 4 -298 60 -6 59 1 60 298 60 202 0
270 -3 284 -13z m-389 -154 c-18 -104 -52 -167 -101 -183 -45 -15 -85 -5 -118
29 l-26 27 39 17 c48 22 99 71 117 115 13 28 19 32 55 32 l40 0 -6 -37z m155
15 c0 -13 13 -60 29 -105 l28 -82 -21 -38 c-12 -20 -36 -48 -55 -60 l-33 -22
-35 26 c-19 14 -43 43 -54 64 -18 37 -18 39 0 82 10 24 24 69 31 100 l13 57
49 0 c43 0 48 -2 48 -22z m134 0 c9 -38 63 -95 112 -118 l45 -22 -27 -29 c-81
-84 -193 -10 -211 141 l-6 50 41 0 c33 0 41 -4 46 -22z"/>
<path d="M2929 4073 c-13 -16 -12 -17 4 -4 16 13 21 21 13 21 -2 0 -10 -8 -17
-17z"/>
<path d="M3189 4073 c-13 -16 -12 -17 4 -4 16 13 21 21 13 21 -2 0 -10 -8 -17
-17z"/>
<path d="M680 4077 c0 -2 15 -16 33 -33 l32 -29 -29 33 c-28 30 -36 37 -36 29z"/>
<path d="M1308 4073 c7 -3 16 -2 19 1 4 3 -2 6 -13 5 -11 0 -14 -3 -6 -6z"/>
<path d="M2498 4073 c7 -3 16 -2 19 1 4 3 -2 6 -13 5 -11 0 -14 -3 -6 -6z"/>
<path d="M635 4050 c10 -11 20 -20 23 -20 3 0 -3 9 -13 20 -10 11 -20 20 -23
20 -3 0 3 -9 13 -20z"/>
<path d="M1358 4063 c7 -3 16 -2 19 1 4 3 -2 6 -13 5 -11 0 -14 -3 -6 -6z"/>
<path d="M2448 4063 c6 -2 18 -2 25 0 6 3 1 5 -13 5 -14 0 -19 -2 -12 -5z"/>
<path d="M1398 4053 c6 -2 18 -2 25 0 6 3 1 5 -13 5 -14 0 -19 -2 -12 -5z"/>
<path d="M2398 4053 c6 -2 18 -2 25 0 6 3 1 5 -13 5 -14 0 -19 -2 -12 -5z"/>
<path d="M1458 4043 c6 -2 18 -2 25 0 6 3 1 5 -13 5 -14 0 -19 -2 -12 -5z"/>
<path d="M2343 4043 c9 -2 23 -2 30 0 6 3 -1 5 -18 5 -16 0 -22 -2 -12 -5z"/>
<path d="M3159 4033 c-13 -16 -12 -17 4 -4 16 13 21 21 13 21 -2 0 -10 -8 -17
-17z"/>
<path d="M690 3985 c13 -14 26 -25 28 -25 3 0 -5 11 -18 25 -13 14 -26 25 -28
25 -3 0 5 -11 18 -25z"/>
<path d="M3124 3988 l-19 -23 23 19 c21 18 27 26 19 26 -2 0 -12 -10 -23 -22z"/>
<path d="M3089 3943 c-13 -16 -12 -17 4 -4 16 13 21 21 13 21 -2 0 -10 -8 -17
-17z"/>
<path d="M740 3925 c13 -14 26 -25 28 -25 3 0 -5 11 -18 25 -13 14 -26 25 -28
25 -3 0 5 -11 18 -25z"/>
<path d="M814 1858 c-12 -19 -18 -168 -7 -168 5 0 7 -14 5 -31 -3 -23 -1 -30
7 -25 7 4 9 15 6 25 -7 24 38 64 55 48 10 -9 11 -9 6 1 -4 6 -2 12 4 12 8 0 9
11 5 33 -12 58 -26 97 -35 92 -4 -3 -10 2 -14 10 -7 18 -22 19 -32 3z m36 -46
c0 -4 -9 -8 -20 -9 -11 -1 -20 3 -20 8 0 6 5 7 10 4 6 -3 10 -1 10 5 0 6 5 8
10 5 6 -3 10 -9 10 -13z m20 -32 c0 -5 -7 -10 -15 -10 -8 0 -15 5 -15 10 0 6
7 10 15 10 8 0 15 -4 15 -10z m-30 -14 c9 -12 8 -15 -8 -13 -12 0 -18 6 -15
14 6 16 8 16 23 -1z m46 -35 c-4 -5 -15 -8 -25 -6 -11 2 -22 -3 -25 -11 -8
-20 -25 -17 -23 5 1 13 9 19 26 19 14 0 27 5 29 12 3 8 8 8 14 2 6 -6 7 -15 4
-21z"/>
<path d="M964 1728 l-19 -23 23 19 c21 18 27 26 19 26 -2 0 -12 -10 -23 -22z"/>
<path d="M2875 1710 c10 -11 20 -20 23 -20 3 0 -3 9 -13 20 -10 11 -20 20 -23
20 -3 0 3 -9 13 -20z"/>
<path d="M3404 1679 c-4 -7 -3 -10 3 -6 7 4 10 -3 9 -18 -1 -21 -3 -23 -12
-10 -15 20 -30 19 -47 -5 -8 -11 -17 -17 -21 -13 -4 4 -40 -27 -80 -70 -41
-42 -69 -74 -62 -71 6 3 3 -1 -6 -9 -10 -8 -15 -17 -11 -21 4 -4 -1 -4 -11 0
-14 5 -15 9 -4 15 17 11 10 11 -32 -1 -30 -9 -37 -7 -64 18 -18 16 -23 18 -13
5 18 -21 18 -21 -5 -26 -21 -4 -21 -4 4 -6 15 0 30 -5 33 -11 9 -14 -12 -12
-69 5 -26 8 -53 12 -59 8 -6 -3 -7 -1 -3 5 10 17 -6 15 -30 -3 -24 -18 -34
-19 -34 -1 0 8 10 17 23 19 l22 4 -23 2 c-16 1 -26 -7 -33 -26 -11 -26 -12
-27 -20 -8 -9 18 -9 18 -5 -2 2 -13 0 -23 -6 -23 -8 0 -7 -52 2 -118 0 -2 3
-1 8 1 4 3 7 -12 7 -34 0 -21 -3 -39 -7 -39 -4 0 -7 -10 -5 -22 1 -13 -3 -22
-9 -21 -6 1 -22 -10 -35 -25 -20 -22 -20 -24 -2 -9 16 14 23 15 29 6 4 -7 3
-10 -3 -6 -13 8 -36 -17 -25 -28 4 -4 -2 -3 -13 2 -11 6 -27 8 -35 5 -20 -7
-74 -52 -62 -52 5 0 12 -8 15 -19 3 -13 12 -18 31 -16 14 2 29 -2 33 -7 4 -7
1 -8 -7 -3 -9 5 -11 4 -6 -4 13 -21 27 -1 15 22 -9 17 -9 20 1 10 7 -6 19 -9
26 -6 8 3 14 0 14 -7 0 -6 -5 -8 -12 -4 -8 5 -8 1 2 -12 8 -10 10 -16 5 -11
-4 4 -18 -2 -30 -13 -25 -24 -86 -31 -93 -11 -3 9 0 11 9 6 8 -4 6 1 -4 11
-15 16 -19 17 -27 4 -6 -10 -3 -18 11 -28 10 -7 19 -20 19 -28 0 -20 -18 -18
-23 4 -4 16 -5 16 -6 0 -1 -20 -9 -22 -31 -8 -8 5 -11 12 -7 17 5 4 12 1 17
-7 8 -12 10 -10 10 8 0 13 -4 21 -9 17 -15 -8 -21 9 -9 25 8 12 9 12 4 -3 -4
-11 -2 -16 5 -12 6 4 8 14 4 23 -3 9 -3 13 1 9 4 -4 13 -2 19 3 8 7 20 3 37
-12 39 -35 61 -34 39 1 -5 7 -13 11 -19 7 -5 -3 -20 3 -33 13 -23 19 -23 19
-57 -15 -19 -19 -38 -34 -43 -34 -5 0 -2 -8 7 -17 8 -10 24 -29 35 -43 11 -14
18 -20 15 -14 -3 7 4 12 20 12 13 0 32 7 42 15 12 11 22 13 32 7 13 -8 12 -10
-2 -10 -9 0 -19 -4 -23 -10 -3 -5 7 -5 25 1 32 12 38 24 18 33 -7 2 -4 4 7 3
11 -1 21 3 22 8 0 6 -3 9 -9 7 -5 -1 -6 2 -3 8 4 6 13 9 21 6 10 -4 16 4 20
24 4 16 17 39 30 51 13 12 21 25 19 29 -3 5 2 11 11 14 10 4 13 2 8 -6 -4 -7
-3 -8 5 -4 6 4 9 16 6 26 -8 25 7 32 25 12 13 -14 12 -15 -5 -8 -15 5 -17 4
-9 -4 12 -12 47 -2 38 11 -7 11 45 1 62 -12 7 -5 11 -3 11 6 0 8 -10 15 -21
16 -13 0 -16 3 -7 6 15 6 86 -14 114 -33 17 -11 15 -13 -14 -38 -39 -33 -51
-26 -18 11 21 25 21 26 2 9 -20 -16 -25 -17 -40 -5 -16 13 -17 12 -5 -3 8 -9
11 -22 7 -28 -4 -7 1 -13 12 -16 10 -3 28 -20 41 -38 12 -18 30 -41 39 -52 10
-10 45 -53 78 -94 33 -41 98 -117 144 -168 110 -121 278 -255 309 -244 7 2
-14 17 -46 32 -113 58 -230 172 -436 429 -91 114 -105 136 -93 148 11 11 18
11 38 1 14 -7 24 -19 21 -26 -2 -8 7 -12 26 -12 16 0 44 -3 61 -6 28 -6 31 -4
31 17 0 22 -1 22 -13 4 -8 -10 -19 -15 -25 -11 -19 11 -14 26 12 36 30 11 42
60 15 60 -13 0 -17 5 -12 18 5 15 4 14 -9 -2 -13 -17 -15 -17 -21 -2 -4 10 3
28 20 46 25 29 27 29 46 13 11 -10 63 -70 115 -133 102 -124 131 -156 116
-130 -11 21 -197 241 -223 264 -11 10 -18 22 -16 27 3 4 -9 14 -26 23 -25 13
-29 13 -19 1 6 -8 8 -20 4 -27 -6 -9 -3 -9 9 1 10 8 20 11 23 9 3 -3 -14 -22
-37 -41 -26 -23 -38 -40 -33 -48 4 -7 3 -10 -2 -6 -18 11 -35 -10 -36 -41 -1
-22 -6 -32 -17 -32 -14 0 -14 2 -1 11 13 9 12 10 -2 5 -10 -3 -18 -1 -18 4 0
6 6 10 14 10 8 0 13 6 12 13 -3 24 -18 38 -35 32 -9 -3 -2 8 16 25 17 17 34
43 36 58 2 15 3 9 1 -13 -4 -59 7 -68 35 -26 21 33 22 34 2 17 l-21 -19 0 41
c0 22 -3 49 -6 59 -5 15 -4 15 5 3 8 -11 11 -12 11 -2 0 8 5 10 13 6 6 -4 2 3
-10 15 -26 24 -31 40 -8 21 13 -11 14 -10 9 5 -5 12 -4 16 4 11 6 -3 14 -1 18
5 4 7 3 9 -3 6 -15 -9 -26 24 -13 37 7 7 14 6 23 -3 8 -10 8 -12 0 -7 -6 3
-14 2 -17 -3 -15 -23 27 -1 68 36 25 22 47 39 50 36 7 -7 46 7 46 17 0 6 -10
6 -24 0 -21 -8 -24 -6 -23 10 1 11 5 20 10 20 4 0 5 6 1 13 -4 7 -3 9 2 4 5
-5 9 -13 9 -18 0 -5 3 -9 8 -9 4 0 10 0 13 0 4 0 -1 12 -11 26 -13 20 -14 29
-5 38 8 8 10 7 5 -5 -3 -9 1 -21 8 -28 12 -9 16 -8 20 3 3 8 -1 20 -9 26 -8 7
-14 20 -14 28 0 12 3 13 11 5 6 -6 17 -9 25 -6 10 4 13 -6 11 -40 -1 -26 -6
-43 -12 -40 -6 2 -11 -6 -12 -17 -1 -11 1 -20 5 -20 10 0 62 56 62 67 0 4 -5
1 -11 -7 -8 -12 -9 -11 -6 5 2 11 9 19 18 17 8 -2 11 0 6 4 -4 4 0 18 9 32 15
23 15 26 -6 46 -12 11 -20 16 -18 10 2 -7 -1 -12 -7 -13 -5 0 -10 8 -10 18 0
25 -11 36 -21 20z m-14 -61 c0 -17 -2 -18 -16 -8 -13 11 -16 10 -20 -8 -7 -23
-34 -19 -34 5 0 9 6 13 15 9 9 -3 20 3 27 14 14 22 28 17 28 -12z m44 -9 c-17
-7 -17 -8 -1 -8 20 -1 24 -21 3 -21 -15 0 -29 27 -21 40 3 5 13 6 22 3 15 -6
14 -7 -3 -14z m-109 -56 c-5 -10 -9 -21 -9 -25 -1 -5 -5 -8 -11 -7 -5 1 -9 5
-7 10 1 5 -7 9 -19 9 -11 0 -18 -4 -15 -9 3 -5 -1 -14 -9 -21 -8 -7 -15 -9
-15 -5 0 4 -8 1 -17 -6 -10 -8 -2 5 17 28 23 27 41 41 53 38 14 -3 16 0 8 9
-16 19 0 29 17 12 10 -9 12 -21 7 -33z m-24 -67 c-6 -7 -8 -16 -4 -19 3 -4 3
-7 0 -7 -3 0 -11 8 -16 18 -8 14 -5 18 11 19 15 2 17 -1 9 -11z m-30 -31 c17
11 9 -1 -15 -24 -23 -22 -31 -12 -13 17 5 7 3 12 -3 12 -6 0 -8 5 -4 11 5 8
10 6 16 -5 5 -9 13 -14 19 -11z m-303 -26 c25 0 26 -1 7 -10 -31 -15 -50 -49
-34 -60 8 -4 10 -11 6 -16 -13 -12 -28 20 -22 46 4 15 1 27 -7 32 -9 6 -10 9
-1 9 7 0 10 7 7 18 -5 16 -5 16 6 0 6 -10 23 -18 38 -19z m-75 -16 c-3 -7 -9
-10 -14 -7 -14 8 -11 21 5 21 8 0 12 -6 9 -14z m132 7 c-3 -5 -10 -10 -16 -10
-5 0 -9 5 -9 10 0 6 7 10 16 10 8 0 12 -4 9 -10z m142 4 c-3 -3 -12 -4 -19 -1
-8 3 -5 6 6 6 11 1 17 -2 13 -5z m10 -40 c-3 -3 -12 -4 -19 -1 -8 3 -5 6 6 6
11 1 17 -2 13 -5z m-277 -29 c0 -8 -2 -15 -4 -15 -2 0 -6 7 -10 15 -3 8 -1 15
4 15 6 0 10 -7 10 -15z m121 -22 c12 -16 12 -17 -2 -6 -9 7 -20 9 -24 5 -5 -4
-5 -1 -1 6 9 16 11 15 27 -5z m-109 -32 c8 12 9 11 5 -1 -2 -8 -10 -14 -16
-12 -6 1 -11 -5 -11 -15 0 -9 -2 -14 -5 -11 -4 3 -3 19 2 34 5 23 8 25 11 10
3 -15 6 -16 14 -5z m214 -89 c-17 -17 -66 -19 -93 -3 -14 7 -7 9 30 8 51 -2
68 11 66 48 -2 39 4 40 8 1 3 -26 -1 -44 -11 -54z m-72 53 c3 -8 1 -15 -4 -15
-6 0 -10 5 -10 11 0 5 -5 7 -12 3 -7 -4 -8 -3 -4 4 10 16 23 15 30 -3z m-118
-10 c4 -8 11 -12 17 -8 6 4 7 1 2 -7 -6 -10 -11 -10 -20 3 -7 9 -15 14 -18 10
-4 -3 -7 -1 -7 5 0 17 20 15 26 -3z m199 -105 c3 -6 -1 -7 -9 -4 -18 7 -21 14
-7 14 6 0 13 -4 16 -10z m70 -21 c0 -7 -8 -15 -17 -17 -18 -3 -25 18 -11 32
10 10 28 1 28 -15z m-346 -3 c9 -10 7 -17 -5 -27 -23 -19 -51 -21 -51 -4 0 8
4 12 9 9 5 -3 16 0 24 7 12 10 12 14 2 20 -8 6 -9 9 -2 9 6 0 17 -6 23 -14z
m399 -10 c3 -13 -1 -17 -14 -14 -11 2 -20 11 -22 22 -3 13 1 17 14 14 11 -2
20 -11 22 -22z m-488 7 c0 -5 -3 -18 -6 -30 -7 -25 -39 -31 -47 -9 -8 20 4 28
21 13 13 -9 14 -9 8 1 -4 6 -4 17 -1 22 7 12 25 13 25 3z m438 -47 c3 -13 -1
-17 -14 -14 -11 2 -20 11 -22 22 -3 13 1 17 14 14 11 -2 20 -11 22 -22z"/>
<path d="M2839 1103 c-13 -16 -12 -17 4 -4 9 7 17 15 17 17 0 8 -8 3 -21 -13z"/>
<path d="M2920 1655 c13 -14 26 -25 28 -25 3 0 -5 11 -18 25 -13 14 -26 25
-28 25 -3 0 5 -11 18 -25z"/>
<path d="M2965 1600 c10 -11 20 -20 23 -20 3 0 -3 9 -13 20 -10 11 -20 20 -23
20 -3 0 3 -9 13 -20z"/>
<path d="M1084 1578 l-19 -23 23 19 c21 18 27 26 19 26 -2 0 -12 -10 -23 -22z"/>
<path d="M2853 1544 c13 -15 17 -29 12 -45 -7 -22 -7 -22 9 -6 22 22 34 21 92
-3 26 -11 49 -19 51 -17 6 7 -105 49 -118 45 -7 -2 -24 8 -38 22 -14 14 -18
16 -8 4z"/>
<path d="M3005 1550 c10 -11 20 -20 23 -20 3 0 -3 9 -13 20 -10 11 -20 20 -23
20 -3 0 3 -9 13 -20z"/>
<path d="M2690 1536 c0 -2 8 -10 18 -17 15 -13 16 -12 3 4 -13 16 -21 21 -21
13z"/>
<path d="M2745 1470 c10 -11 20 -20 23 -20 3 0 -3 9 -13 20 -10 11 -20 20 -23
20 -3 0 3 -9 13 -20z"/>
<path d="M735 1456 c-11 -12 -28 -33 -38 -48 -9 -16 -26 -28 -37 -28 -39 0
-26 -15 14 -16 24 -1 34 1 23 5 -17 6 -17 8 -4 20 13 10 17 9 27 -8 6 -12 7
-21 3 -21 -4 0 0 -5 10 -11 9 -6 15 -14 12 -19 -3 -4 2 -11 10 -14 13 -5 14
-2 4 17 -7 12 -21 35 -32 50 -10 16 -17 31 -14 34 3 2 27 -27 53 -66 26 -39
49 -71 51 -71 2 0 1 5 -2 10 -3 6 3 10 14 10 24 0 28 -18 7 -26 -8 -3 -12 -13
-9 -22 2 -9 -10 -1 -27 18 l-32 35 22 -33 c18 -26 19 -36 10 -47 -10 -12 -9
-15 9 -15 11 0 20 6 18 13 -1 6 3 11 9 10 7 -1 10 5 7 16 -5 19 12 37 41 42
11 2 21 11 23 19 4 12 3 12 -5 2 -10 -15 -98 -7 -108 10 -4 6 6 8 27 4 34 -5
34 -5 -4 7 -24 8 -46 26 -63 50 -28 42 -26 63 7 76 16 5 18 9 8 13 -8 3 -23
-4 -34 -16z"/>
<path d="M798 1453 c7 -3 16 -2 19 1 4 3 -2 6 -13 5 -11 0 -14 -3 -6 -6z"/>
<path d="M2770 1436 c0 -2 8 -10 18 -17 15 -13 16 -12 3 4 -13 16 -21 21 -21
13z"/>
<path d="M2815 1380 c10 -11 20 -20 23 -20 3 0 -3 9 -13 20 -10 11 -20 20 -23
20 -3 0 3 -9 13 -20z"/>
<path d="M650 1348 c0 -5 -5 -6 -10 -3 -6 4 -9 1 -8 -6 2 -7 -8 -15 -22 -19
-18 -5 -24 -13 -23 -27 1 -12 -4 -27 -12 -33 -20 -17 -19 -30 3 -29 11 0 12 2
4 6 -10 4 -10 8 -1 19 6 8 15 11 20 8 5 -3 6 2 3 10 -14 36 9 12 52 -54 25
-38 47 -70 50 -70 3 0 2 5 -1 10 -3 6 0 10 7 11 7 0 5 4 -5 8 -10 4 -17 9 -16
11 2 3 -8 17 -22 32 -14 14 -31 38 -38 52 -13 23 -12 28 3 45 10 11 28 21 40
23 21 3 21 3 -1 10 -13 3 -23 2 -23 -4z m-40 -42 c0 -3 -4 -8 -10 -11 -5 -3
-10 -1 -10 4 0 6 5 11 10 11 6 0 10 -2 10 -4z"/>
<path d="M708 1333 c7 -3 16 -2 19 1 4 3 -2 6 -13 5 -11 0 -14 -3 -6 -6z"/>
<path d="M614 1243 c4 -6 0 -14 -6 -16 -8 -4 -7 -6 4 -6 9 -1 20 -6 24 -12 4
-8 -4 -9 -27 -5 l-34 6 35 -14 c47 -19 52 -19 41 2 -11 20 -45 62 -37 45z"/>
<path d="M526 1217 c1 -11 -6 -22 -19 -27 -12 -5 -17 -9 -10 -9 7 -1 10 -7 7
-15 -3 -8 0 -17 7 -22 8 -4 10 -3 5 4 -10 16 11 51 37 63 l22 10 -22 -5 c-12
-2 -24 1 -26 8 -2 6 -3 3 -1 -7z"/>
<path d="M720 1188 c14 -5 35 -7 47 -5 12 2 24 0 27 -5 2 -5 4 -3 2 3 -1 6
-24 12 -51 14 -41 2 -45 1 -25 -7z"/>
<path d="M679 1139 c21 -36 21 -36 1 -62 -18 -23 -23 -24 -62 -15 -24 6 -52
18 -62 27 -16 13 -18 13 -11 1 31 -55 45 -67 72 -62 25 5 27 4 14 -11 -7 -9
-17 -14 -22 -11 -5 3 -6 -2 -3 -11 6 -14 8 -13 20 4 8 11 24 21 37 23 16 2 22
10 22 27 0 14 6 26 13 29 7 2 19 16 27 31 11 23 11 28 0 28 -7 0 -11 -6 -8
-14 3 -7 0 -13 -6 -13 -6 0 -11 3 -11 8 0 4 -10 18 -21 32 -21 25 -21 25 0
-11z m-49 -89 c25 -7 36 -7 42 3 5 8 8 7 8 -5 0 -14 -8 -17 -44 -15 -24 1 -42
5 -40 9 2 3 -2 9 -8 11 -23 9 6 7 42 -3z"/>
<path d="M735 1160 c4 -6 11 -8 16 -5 14 9 11 15 -7 15 -8 0 -12 -5 -9 -10z"/>
<path d="M476 1145 c-3 -9 -2 -14 3 -11 5 3 12 -2 15 -11 4 -9 1 -20 -6 -25
-10 -6 -9 -8 4 -8 9 0 20 -5 24 -11 4 -8 -3 -9 -27 -3 -19 4 -42 8 -51 8 -28
1 -21 16 7 16 14 0 25 4 25 9 0 5 -12 6 -27 2 -19 -5 -28 -14 -28 -28 0 -11
-6 -27 -14 -37 -12 -14 -12 -19 -1 -29 10 -9 11 -9 5 1 -4 8 2 23 15 37 19 20
25 22 63 13 26 -6 53 -22 71 -42 l29 -31 -18 30 c-11 17 -33 54 -51 83 -23 37
-33 48 -38 37z"/>
<path d="M364 1006 c-5 -11 -18 -22 -29 -24 -11 -2 -24 -8 -30 -14 -6 -6 -4
-7 6 -3 19 7 95 -11 104 -25 3 -5 -15 -3 -41 5 -31 9 -53 11 -63 5 -9 -5 -12
-10 -7 -10 5 0 1 -9 -8 -19 -17 -19 -17 -19 6 -14 12 3 30 12 39 19 22 19 77
2 108 -33 l24 -28 -19 30 c-10 17 -32 53 -49 81 -29 48 -32 50 -41 30z m25
-25 c9 -16 7 -17 -15 -13 -19 3 -22 7 -13 18 15 18 16 18 28 -5z"/>
<path d="M420 980 c6 -11 13 -20 16 -20 2 0 0 9 -6 20 -6 11 -13 20 -16 20 -2
0 0 -9 6 -20z"/>
<path d="M586 977 c3 -9 -7 -27 -23 -42 -18 -18 -22 -25 -10 -22 9 4 17 1 17
-5 0 -13 -80 -2 -95 13 -6 6 3 7 25 4 30 -5 29 -3 -10 10 -25 8 -46 15 -47 15
-2 0 11 -23 28 -51 31 -50 31 -50 53 -31 11 10 29 22 40 26 11 4 16 12 12 21
-4 10 2 19 17 25 12 5 17 9 10 9 -7 1 -10 7 -7 15 3 8 1 17 -5 21 -6 3 -9 0
-5 -8z m-61 -86 c10 -18 -17 -23 -33 -7 -15 15 -15 16 5 16 12 0 24 -4 28 -9z"/>
<path d="M3542 910 c15 -19 60 -85 100 -147 40 -62 79 -112 86 -113 17 0 15
17 -2 23 -8 3 -51 59 -95 125 -45 66 -89 126 -99 133 -9 8 -5 -2 10 -21z"/>
<path d="M237 848 c-19 -18 -24 -29 -16 -34 8 -4 9 -3 5 4 -4 7 -3 12 3 12 15
0 24 -20 9 -20 -8 -1 -6 -6 5 -15 11 -7 25 -11 32 -9 7 3 16 1 20 -5 3 -6 0
-11 -7 -11 -8 -1 -6 -6 5 -15 11 -7 25 -11 32 -9 7 3 16 1 20 -5 3 -6 1 -11
-5 -11 -6 0 -8 -5 -5 -11 4 -6 13 -8 21 -5 8 3 13 0 11 -6 -4 -20 20 -19 26 2
3 11 1 18 -4 14 -5 -3 -40 21 -79 52 -56 45 -68 59 -59 70 13 16 6 20 94 -50
l70 -55 28 26 c15 15 26 32 23 38 -2 6 8 10 22 10 14 0 26 6 28 13 1 7 0 8 -3
2 -2 -5 -9 -10 -14 -10 -6 0 -8 4 -5 9 3 5 -1 14 -8 21 -12 9 -17 7 -25 -9 -6
-11 -11 -28 -11 -39 0 -10 -8 -26 -18 -36 -18 -15 -23 -13 -93 46 l-74 63 -28
-27z"/>
<path d="M3824 814 c5 -13 1 -15 -19 -12 -15 3 -22 1 -18 -5 4 -6 0 -8 -10 -4
-10 4 -26 -6 -46 -29 -38 -43 -41 -67 -3 -32 36 34 90 61 104 52 7 -4 8 -3 4
4 -10 16 7 15 23 0 11 -10 13 -10 7 0 -8 14 10 17 19 2 3 -5 0 -10 -7 -10 -7
0 -1 -8 12 -17 30 -21 40 -33 39 -53 0 -9 -5 -6 -11 8 -6 12 -16 22 -22 22 -6
0 -17 9 -24 20 -9 15 -19 18 -44 14 -37 -7 -88 -55 -88 -82 1 -10 6 -5 14 13
20 45 35 54 81 45 22 -4 31 -9 20 -9 -19 -2 -18 -3 3 -11 28 -12 30 -55 3 -70
-43 -23 -77 25 -44 63 l18 22 -22 -19 c-24 -20 -32 -10 -10 14 10 12 9 12 -5
1 -12 -9 -16 -21 -12 -40 4 -20 3 -23 -5 -11 -6 8 -11 10 -11 4 0 -6 9 -23 21
-38 26 -33 78 -37 86 -6 3 11 9 18 13 15 4 -3 4 11 0 30 -4 19 -4 33 0 30 16
-10 17 -70 2 -95 l-14 -25 19 24 c16 18 22 21 26 10 4 -8 4 0 1 16 -4 28 -4
29 6 6 6 -13 8 -32 5 -42 -4 -11 -1 -19 5 -19 7 0 10 -8 7 -20 -3 -11 -2 -18
3 -15 4 3 10 14 13 25 3 11 2 18 -3 15 -4 -2 -8 18 -9 47 -1 48 0 50 17 34 10
-9 22 -16 27 -16 5 0 1 6 -8 13 -9 6 -27 32 -39 56 -13 24 -27 44 -33 43 -5 0
-18 6 -27 15 -9 8 -21 13 -25 10 -5 -3 -15 -2 -23 4 -10 6 0 7 29 5 29 -3 40
-1 30 5 -8 5 -29 9 -48 9 -26 0 -32 -3 -27 -16z m96 -40 c0 -8 -19 -13 -24 -6
-3 5 1 9 9 9 8 0 15 -2 15 -3z m30 -59 c0 -5 -5 -3 -10 5 -5 8 -10 20 -10 25
0 6 5 3 10 -5 5 -8 10 -19 10 -25z m-126 -74 c-5 -6 -34 20 -34 30 0 5 8 1 18
-8 10 -10 17 -20 16 -22z"/>
<path d="M182 787 c-12 -13 -19 -27 -15 -32 5 -4 3 -5 -3 -2 -13 8 -89 -49
-89 -66 0 -19 35 -20 56 -1 10 9 19 12 19 6 0 -15 -33 -32 -60 -32 -12 0 -18
-4 -15 -11 4 -6 13 -8 21 -5 8 3 13 2 13 -2 -3 -19 2 -25 11 -12 6 10 10 11
10 3 0 -7 10 -13 23 -14 21 -1 21 -1 -3 -9 -21 -7 -11 -15 13 -11 5 1 6 -3 3
-8 -8 -13 44 -52 58 -44 6 3 8 2 3 -2 -4 -5 0 -17 10 -27 33 -36 3 -16 -98 66
-97 79 -105 83 -120 68 -16 -16 -15 -19 6 -47 12 -16 27 -30 33 -30 20 0 112
-77 105 -88 -3 -6 -1 -7 5 -3 7 4 12 3 12 -2 0 -5 11 -14 24 -20 20 -9 27 -7
41 8 9 10 17 24 19 32 1 7 7 22 13 32 9 17 7 56 -4 56 -2 0 -15 -7 -28 -16
-13 -9 -29 -14 -35 -12 -6 2 6 12 27 23 21 10 47 26 58 35 19 15 19 14 3 -5
-10 -12 -14 -26 -9 -33 9 -16 17 -8 51 55 l24 43 -22 23 c-12 13 -19 27 -15
32 5 4 -3 2 -15 -4 -13 -7 -26 -10 -30 -7 -3 3 1 6 8 6 10 0 9 5 -3 18 -10 10
-14 22 -10 26 4 4 0 4 -8 1 -9 -3 -23 3 -34 15 -23 25 -27 25 -53 -3z m30 -36
c-11 -7 -11 -9 2 -14 9 -4 16 -14 16 -23 0 -13 6 -15 28 -10 17 4 22 3 14 -2
-11 -8 -11 -10 2 -15 9 -4 16 -13 16 -21 0 -8 5 -16 10 -18 6 -2 0 -9 -12 -17
-14 -8 -18 -9 -12 -1 7 6 9 20 7 31 -8 27 -41 34 -66 12 -22 -18 -22 -18 -6 2
11 14 14 26 9 40 -5 11 -9 16 -9 10 -1 -5 -5 -5 -9 2 -6 10 -14 9 -35 -2 -15
-7 -27 -12 -27 -9 0 7 64 44 75 44 6 0 4 -4 -3 -9z m-32 -46 c-7 -9 -15 -13
-17 -11 -7 7 7 26 19 26 6 0 6 -6 -2 -15z m53 -47 c-4 -7 -7 -22 -6 -33 1 -17
1 -17 -4 -2 -3 12 -11 16 -21 13 -10 -4 -6 3 8 14 29 23 34 25 23 8z m-63
-137 c30 -25 57 -46 59 -48 2 -2 2 -5 0 -7 -2 -2 -40 24 -83 59 -44 35 -82 63
-85 62 -3 -1 -7 2 -8 7 0 5 -8 13 -17 18 -9 5 -16 14 -16 20 0 10 28 -10 150
-111z m37 63 c-3 -3 -12 -4 -19 -1 -8 3 -5 6 6 6 11 1 17 -2 13 -5z"/>
<path d="M3219 782 c-19 -16 -51 -38 -71 -51 -21 -12 -38 -25 -38 -28 0 -7 71
37 97 60 12 10 26 16 31 13 9 -5 27 23 19 30 -2 2 -19 -9 -38 -24z"/>
<path d="M3935 790 c10 -11 20 -20 23 -20 3 0 -3 9 -13 20 -10 11 -20 20 -23
20 -3 0 3 -9 13 -20z"/>
<path d="M496 775 c4 -9 9 -13 12 -10 3 3 15 -3 26 -12 20 -17 20 -17 7 0 -8
10 -22 22 -32 28 -15 8 -17 6 -13 -6z"/>
<path d="M3225 749 c-4 -6 -5 -12 -2 -15 2 -3 7 2 10 11 7 17 1 20 -8 4z"/>
<path d="M550 670 c6 -11 13 -20 16 -20 2 0 0 9 -6 20 -6 11 -13 20 -16 20 -2
0 0 -9 6 -20z"/>
<path d="M640 685 c0 -7 101 -57 106 -53 2 2 -21 16 -51 31 -30 15 -55 25 -55
22z"/>
<path d="M50 670 c0 -5 5 -10 10 -10 6 0 10 5 10 10 0 6 -4 10 -10 10 -5 0
-10 -4 -10 -10z"/>
<path d="M3030 670 c-8 -5 -10 -10 -5 -10 6 0 17 5 25 10 8 5 11 10 5 10 -5 0
-17 -5 -25 -10z"/>
<path d="M3971 634 c0 -11 3 -14 6 -6 3 7 2 16 -1 19 -3 4 -6 -2 -5 -13z"/>
<path d="M365 630 c3 -5 8 -10 11 -10 2 0 4 5 4 10 0 6 -5 10 -11 10 -5 0 -7
-4 -4 -10z"/>
<path d="M580 620 c6 -11 13 -20 16 -20 2 0 0 9 -6 20 -6 11 -13 20 -16 20 -2
0 0 -9 6 -20z"/>
<path d="M410 616 c14 -7 36 -16 50 -20 14 -3 7 3 -15 13 -45 22 -73 27 -35 7z"/>
<path d="M2855 615 c-22 -8 -31 -13 -20 -13 11 0 36 6 55 13 45 17 18 17 -35
0z"/>
<path d="M3260 615 c-19 -7 -28 -14 -20 -14 8 0 29 6 45 14 39 17 21 18 -25 0z"/>
<path d="M3316 581 l-40 -46 44 42 c24 23 42 44 40 46 -3 2 -23 -17 -44 -42z"/>
<path d="M3897 606 c-12 -9 -14 -16 -8 -21 20 -12 11 -43 -20 -69 -17 -14 -25
-26 -19 -26 6 0 8 -5 4 -12 -5 -7 -3 -8 5 -4 7 5 10 11 7 14 -12 11 16 30 38
26 18 -3 25 1 29 19 6 21 6 21 -8 3 -14 -18 -15 -18 -15 -2 0 9 5 26 10 36 8
16 8 18 -5 14 -18 -7 -20 7 -3 24 16 16 7 15 -15 -2z"/>
<path d="M396 597 c3 -10 9 -15 12 -12 3 3 0 11 -7 18 -10 9 -11 8 -5 -6z"/>
<path d="M2787 582 c-21 -23 -21 -33 -1 -58 8 -10 13 -13 9 -6 -4 8 3 12 22
13 27 2 27 2 3 6 -38 7 -46 20 -25 43 10 11 16 20 13 20 -3 0 -12 -8 -21 -18z"/>
<path d="M3198 593 c7 -3 16 -2 19 1 4 3 -2 6 -13 5 -11 0 -14 -3 -6 -6z"/>
<path d="M2943 583 c9 -2 18 -14 18 -26 1 -17 2 -18 6 -4 2 9 8 17 13 17 10 0
30 -56 30 -84 0 -24 26 -66 41 -66 5 0 0 9 -11 20 -11 11 -20 31 -20 44 0 61
-34 108 -77 105 -17 -1 -17 -2 0 -6z"/>
<path d="M3158 583 c7 -3 16 -2 19 1 4 3 -2 6 -13 5 -11 0 -14 -3 -6 -6z"/>
<path d="M558 563 c7 -3 16 -2 19 1 4 3 -2 6 -13 5 -11 0 -14 -3 -6 -6z"/>
<path d="M943 560 c9 -6 17 -20 17 -32 0 -18 -4 -20 -42 -15 l-43 5 37 -11
c31 -10 35 -15 26 -30 -5 -10 -8 -20 -5 -23 2 -2 12 14 22 37 20 42 14 69 -16
76 -8 3 -7 0 4 -7z"/>
<path d="M460 525 c19 -19 36 -35 39 -35 3 0 -10 16 -29 35 -19 19 -36 35 -39
35 -3 0 10 -16 29 -35z"/>
<path d="M598 553 c6 -2 18 -2 25 0 6 3 1 5 -13 5 -14 0 -19 -2 -12 -5z"/>
<path d="M746 523 c-14 -21 -28 -50 -32 -66 -3 -15 -16 -34 -27 -42 -12 -8
-18 -15 -13 -15 5 0 3 -8 -4 -17 -7 -10 1 -3 17 15 17 18 35 50 42 72 14 47
27 57 49 38 9 -8 24 -18 32 -22 8 -4 3 2 -12 14 -53 42 -21 68 42 35 17 -9 30
-13 30 -11 0 10 -59 36 -79 36 -13 0 -30 -14 -45 -37z"/>
<path d="M95 530 c10 -11 20 -20 23 -20 3 0 -3 9 -13 20 -10 11 -20 20 -23 20
-3 0 3 -9 13 -20z"/>
<path d="M2916 515 c-11 -8 -15 -15 -9 -15 6 0 16 7 23 15 16 19 11 19 -14 0z"/>
<path d="M3222 506 c-46 -33 -53 -43 -14 -20 19 10 38 25 44 32 15 17 8 14
-30 -12z"/>
<path d="M2860 485 c-14 -8 -20 -14 -14 -15 5 0 19 7 30 15 24 18 16 19 -16 0z"/>
<path d="M510 486 c0 -3 9 -10 20 -16 11 -6 20 -8 20 -6 0 3 -9 10 -20 16 -11
6 -20 8 -20 6z"/>
<path d="M3710 480 c-19 -6 -10 -8 35 -9 33 0 67 4 75 9 19 12 -72 12 -110 0z"/>
<path d="M2807 466 c-4 -10 -1 -13 8 -9 8 3 12 9 9 14 -7 12 -11 11 -17 -5z"/>
<path d="M870 455 c14 -8 30 -14 35 -14 6 0 -1 6 -15 14 -14 8 -29 14 -35 14
-5 0 1 -6 15 -14z"/>
<path d="M3678 458 c5 -5 16 -8 23 -6 8 3 3 7 -10 11 -17 4 -21 3 -13 -5z"/>
<path d="M574 446 c11 -9 24 -16 30 -16 12 0 7 5 -24 19 -24 11 -24 11 -6 -3z"/>
<path d="M2760 440 c-8 -5 -10 -10 -5 -10 6 0 17 5 25 10 8 5 11 10 5 10 -5 0
-17 -5 -25 -10z"/>
<path d="M3085 440 c-13 -6 -15 -9 -5 -9 8 0 22 4 30 9 18 12 2 12 -25 0z"/>
<path d="M3733 443 c9 -2 25 -2 35 0 9 3 1 5 -18 5 -19 0 -27 -2 -17 -5z"/>
<path d="M930 430 c8 -5 20 -10 25 -10 6 0 3 5 -5 10 -8 5 -19 10 -25 10 -5 0
-3 -5 5 -10z"/>
<path d="M980 412 c8 -5 26 -13 40 -16 17 -5 20 -4 10 2 -8 5 -26 13 -40 16
-17 5 -20 4 -10 -2z"/>
<path d="M747 370 c-8 -22 -12 -42 -7 -45 5 -3 11 1 13 7 3 8 6 6 6 -4 1 -10
4 -18 7 -18 4 0 13 8 20 18 12 15 12 15 7 -7 -10 -38 14 -17 27 25 15 45 4 56
-22 24 l-21 -25 8 33 c10 48 -18 42 -38 -8z"/>
<path d="M2660 400 c-8 -5 -10 -10 -5 -10 6 0 17 5 25 10 8 5 11 10 5 10 -5 0
-17 -5 -25 -10z"/>
<path d="M2880 373 c0 -21 5 -45 10 -53 8 -13 10 -12 10 3 0 17 9 21 45 17 17
-1 14 4 -14 34 -19 20 -39 36 -43 36 -4 0 -8 -17 -8 -37z"/>
<path d="M1065 380 c27 -12 43 -12 25 0 -8 5 -22 9 -30 9 -10 0 -8 -3 5 -9z"/>
<path d="M2580 370 c-8 -5 -10 -10 -5 -10 6 0 17 5 25 10 8 5 11 10 5 10 -5 0
-17 -5 -25 -10z"/>
<path d="M2830 374 c0 -3 5 -14 11 -25 10 -20 10 -20 -16 -3 -14 9 -28 15 -30
12 -8 -8 24 -78 35 -78 7 0 7 7 0 20 -13 24 -3 26 22 3 10 -9 20 -14 23 -11 7
7 -27 88 -37 88 -4 0 -8 -3 -8 -6z"/>
<path d="M838 328 c-25 -32 -28 -40 -13 -35 14 6 24 2 37 -15 17 -23 18 -23
18 35 0 31 -2 57 -4 57 -2 0 -19 -19 -38 -42z m32 -8 c0 -5 -5 -10 -11 -10 -5
0 -7 5 -4 10 3 6 8 10 11 10 2 0 4 -4 4 -10z"/>
<path d="M1185 340 c11 -5 27 -9 35 -9 9 0 8 4 -5 9 -11 5 -27 9 -35 9 -9 0
-8 -4 5 -9z"/>
<path d="M2775 313 c17 -40 23 -49 29 -42 7 7 -25 79 -35 79 -5 0 -2 -17 6
-37z"/>
<path d="M909 313 c-18 -50 -18 -53 -12 -53 3 0 12 8 19 18 12 15 13 14 14
-10 0 -40 15 -34 34 12 18 47 19 50 8 50 -5 0 -14 -10 -20 -22 -10 -23 -11
-23 -11 5 -1 15 -6 27 -11 27 -6 0 -15 -12 -21 -27z"/>
<path d="M2455 330 c-13 -5 -14 -9 -5 -9 8 0 24 4 35 9 13 5 14 9 5 9 -8 0
-24 -4 -35 -9z"/>
<path d="M2712 329 c-25 -9 -24 -27 4 -79 l13 -25 1 29 c0 28 0 29 20 11 11
-10 23 -15 28 -11 4 4 -1 13 -11 21 -9 7 -15 19 -12 27 9 22 -16 37 -43 27z
m28 -17 c0 -13 -12 -22 -22 -16 -10 6 -1 24 13 24 5 0 9 -4 9 -8z"/>
<path d="M650 313 c0 -12 51 -43 105 -63 46 -18 25 -2 -32 25 -32 14 -61 31
-65 38 -6 9 -8 9 -8 0z"/>
<path d="M981 289 c-16 -47 -14 -59 13 -59 31 0 48 22 44 57 -5 43 -42 44 -57
2z m44 1 c3 -5 1 -19 -5 -31 -15 -27 -35 -10 -25 20 7 22 20 27 30 11z"/>
<path d="M1278 313 c7 -3 16 -2 19 1 4 3 -2 6 -13 5 -11 0 -14 -3 -6 -6z"/>
<path d="M2385 310 c-13 -5 -14 -9 -5 -9 8 0 24 4 35 9 13 5 14 9 5 9 -8 0
-24 -4 -35 -9z"/>
<path d="M2640 305 c-18 -10 -20 -14 -8 -15 10 0 21 -14 28 -35 6 -19 16 -35
21 -35 5 0 4 12 -2 27 -5 15 -8 38 -4 50 6 26 0 28 -35 8z"/>
<path d="M2970 290 c-30 -16 -50 -29 -45 -29 6 0 35 13 65 29 30 16 51 29 45
29 -5 0 -35 -13 -65 -29z"/>
<path d="M1318 303 c7 -3 16 -2 19 1 4 3 -2 6 -13 5 -11 0 -14 -3 -6 -6z"/>
<path d="M1358 293 c6 -2 18 -2 25 0 6 3 1 5 -13 5 -14 0 -19 -2 -12 -5z"/>
<path d="M2300 290 c-20 -6 -21 -8 -5 -8 11 0 31 4 45 8 20 6 21 8 5 8 -11 0
-31 -4 -45 -8z"/>
<path d="M1062 278 c-15 -15 -16 -60 -1 -75 28 -28 67 15 57 64 -4 22 -38 29
-56 11z m45 -23 c2 -6 -3 -20 -12 -30 -12 -16 -16 -17 -24 -6 -12 19 -1 53 17
49 8 -2 17 -8 19 -13z"/>
<path d="M1408 283 c6 -2 18 -2 25 0 6 3 1 5 -13 5 -14 0 -19 -2 -12 -5z"/>
<path d="M1458 273 c6 -2 18 -2 25 0 6 3 1 5 -13 5 -14 0 -19 -2 -12 -5z"/>
<path d="M2238 273 c7 -3 16 -2 19 1 4 3 -2 6 -13 5 -11 0 -14 -3 -6 -6z"/>
<path d="M2565 260 c-8 -24 18 -70 40 -70 8 0 19 9 25 20 6 12 7 20 1 20 -5 0
-11 -5 -13 -12 -3 -7 -12 -9 -22 -5 -24 9 -18 53 7 49 9 -2 17 2 17 8 0 20
-48 11 -55 -10z"/>
<path d="M1160 228 c-13 -44 -4 -62 26 -56 25 4 45 47 34 69 -5 9 -18 19 -28
21 -16 4 -22 -3 -32 -34z m50 3 c0 -21 -13 -41 -26 -41 -15 0 -17 10 -8 34 7
17 34 22 34 7z"/>
<path d="M1513 263 c9 -2 23 -2 30 0 6 3 -1 5 -18 5 -16 0 -22 -2 -12 -5z"/>
<path d="M2173 263 c9 -2 23 -2 30 0 6 3 -1 5 -18 5 -16 0 -22 -2 -12 -5z"/>
<path d="M1583 253 c9 -2 25 -2 35 0 9 3 1 5 -18 5 -19 0 -27 -2 -17 -5z"/>
<path d="M2103 253 c9 -2 25 -2 35 0 9 3 1 5 -18 5 -19 0 -27 -2 -17 -5z"/>
<path d="M2483 244 c-11 -29 10 -69 36 -69 33 0 48 27 33 59 -13 30 -59 36
-69 10z m57 -35 c0 -23 -28 -25 -36 -4 -4 8 -3 22 0 31 5 13 9 14 21 4 8 -7
15 -21 15 -31z"/>
<path d="M1235 210 c-8 -46 2 -65 31 -57 17 4 17 6 -3 12 -27 9 -21 25 10 25
21 1 21 1 -3 15 -25 14 -21 19 13 16 9 -1 17 3 17 8 0 6 -6 11 -14 11 -8 0
-21 3 -29 6 -11 4 -17 -5 -22 -36z"/>
<path d="M1673 243 c15 -2 37 -2 50 0 12 2 0 4 -28 4 -27 0 -38 -2 -22 -4z"/>
<path d="M1993 243 c15 -2 39 -2 55 0 15 2 2 4 -28 4 -30 0 -43 -2 -27 -4z"/>
<path d="M1823 233 c20 -2 54 -2 75 0 20 2 3 4 -38 4 -41 0 -58 -2 -37 -4z"/>
<path d="M2408 235 c-3 -3 0 -26 5 -51 8 -32 15 -43 25 -39 7 3 17 5 22 5 15
0 21 36 11 64 -7 18 -18 26 -34 26 -13 0 -26 -2 -29 -5z m48 -30 c8 -20 -4
-51 -15 -39 -5 5 -12 19 -16 32 -5 16 -2 22 10 22 8 0 18 -7 21 -15z"/>
<path d="M830 220 c8 -5 20 -10 25 -10 6 0 3 5 -5 10 -8 5 -19 10 -25 10 -5 0
-3 -5 5 -10z"/>
<path d="M2800 210 c-8 -5 -10 -10 -5 -10 6 0 17 5 25 10 8 5 11 10 5 10 -5 0
-17 -5 -25 -10z"/>
<path d="M1332 170 l-23 -41 27 7 c17 4 29 2 35 -7 6 -9 9 2 9 34 0 59 -17 61
-48 7z"/>
<path d="M1404 175 c-7 -41 0 -65 20 -65 41 0 62 71 27 90 -32 16 -40 12 -47
-25z m41 -15 c0 -13 -6 -25 -12 -27 -9 -3 -13 6 -13 27 0 21 4 30 13 28 6 -3
12 -15 12 -28z"/>
<path d="M2350 194 c0 -14 -3 -14 -15 -4 -22 18 -31 4 -12 -18 10 -10 17 -26
17 -35 0 -9 5 -17 10 -17 6 0 10 13 10 29 0 16 3 36 6 45 3 9 1 16 -5 16 -6 0
-11 -7 -11 -16z"/>
<path d="M910 190 c8 -5 20 -10 25 -10 6 0 3 5 -5 10 -8 5 -19 10 -25 10 -5 0
-3 -5 5 -10z"/>
<path d="M1486 179 c-9 -28 -12 -79 -5 -79 9 0 23 79 15 87 -3 3 -8 0 -10 -8z"/>
<path d="M1517 183 c-14 -14 -7 -81 9 -87 23 -9 34 -7 34 4 0 6 -7 10 -15 10
-23 0 -18 17 8 25 l22 8 -22 4 c-28 5 -30 23 -3 23 11 0 20 5 20 10 0 11 -43
14 -53 3z"/>
<path d="M2145 180 c-3 -5 -2 -10 4 -10 5 0 12 -18 16 -41 8 -48 21 -43 16 7
-1 19 2 34 8 34 6 0 11 5 11 10 0 6 -11 10 -24 10 -14 0 -28 -4 -31 -10z"/>
<path d="M2217 183 c-13 -12 -7 -62 9 -77 12 -12 20 -13 35 -6 22 12 26 59 7
78 -13 13 -41 16 -51 5z m47 -28 c7 -20 -4 -47 -18 -42 -17 6 -20 57 -3 57 8
0 17 -7 21 -15z"/>
<path d="M1586 163 c-5 -12 0 -23 16 -34 12 -10 20 -21 16 -25 -4 -4 -14 -1
-23 6 -8 7 -15 8 -15 2 0 -5 7 -15 15 -22 12 -10 18 -10 30 0 21 17 19 35 -7
54 l-23 17 24 -7 c17 -4 22 -2 19 7 -7 21 -44 23 -52 2z"/>
<path d="M2114 153 l6 -28 -16 23 c-9 12 -20 22 -25 22 -12 0 -11 -77 1 -85 6
-3 10 4 10 17 1 21 2 22 14 6 17 -22 40 -24 32 -2 -3 9 -6 29 -6 45 0 16 -5
29 -11 29 -7 0 -9 -10 -5 -27z"/>
<path d="M1658 158 c7 -7 12 -27 12 -45 0 -18 5 -33 10 -33 6 0 10 16 10 35 0
19 5 35 10 35 6 0 10 5 10 10 0 6 -14 10 -32 10 -25 0 -29 -3 -20 -12z"/>
<path d="M2007 163 c-4 -3 -7 -26 -7 -50 0 -41 1 -43 30 -43 17 0 30 5 30 10
0 6 -9 10 -20 10 -11 0 -20 5 -20 10 0 6 7 10 15 10 23 0 18 18 -7 23 l-23 4
23 8 c12 4 22 11 22 16 0 10 -34 12 -43 2z"/>
<path d="M2630 145 c-36 -13 -60 -24 -54 -24 13 -1 134 39 134 45 0 7 -12 4
-80 -21z"/>
<path d="M1720 115 c0 -25 5 -45 10 -45 6 0 10 7 10 17 0 14 2 14 20 -2 20
-18 20 -18 19 6 -1 13 -1 29 1 34 6 25 -2 35 -30 35 -29 0 -30 -2 -30 -45z
m45 15 c-3 -5 -10 -10 -16 -10 -5 0 -9 5 -9 10 0 6 7 10 16 10 8 0 12 -4 9
-10z"/>
<path d="M1816 148 c-3 -7 -9 -28 -15 -45 -6 -20 -6 -33 0 -33 5 0 9 5 9 10 0
6 9 10 20 10 11 0 20 -4 20 -10 0 -5 4 -10 9 -10 6 0 3 20 -6 45 -15 44 -30
57 -37 33z"/>
<path d="M1881 113 c1 -37 3 -42 8 -23 l7 25 6 -24 c7 -25 27 -20 29 7 1 11 4
8 9 -8 6 -20 8 -16 9 23 1 52 -18 62 -30 16 l-6 -24 -4 24 c-2 14 -10 26 -16
29 -9 2 -13 -10 -12 -45z"/>
<path d="M1971 115 c-1 -29 3 -45 8 -40 5 6 6 28 1 50 l-8 40 -1 -50z"/>
<path d="M1108 123 c7 -3 16 -2 19 1 4 3 -2 6 -13 5 -11 0 -14 -3 -6 -6z"/>
<path d="M1178 103 c7 -3 16 -2 19 1 4 3 -2 6 -13 5 -11 0 -14 -3 -6 -6z"/>
<path d="M1218 93 c7 -3 16 -2 19 1 4 3 -2 6 -13 5 -11 0 -14 -3 -6 -6z"/>
<path d="M2478 93 c7 -3 16 -2 19 1 4 3 -2 6 -13 5 -11 0 -14 -3 -6 -6z"/>
<path d="M1258 83 c7 -3 16 -2 19 1 4 3 -2 6 -13 5 -11 0 -14 -3 -6 -6z"/>
<path d="M2438 83 c7 -3 16 -2 19 1 4 3 -2 6 -13 5 -11 0 -14 -3 -6 -6z"/>
<path d="M1298 73 c6 -2 18 -2 25 0 6 3 1 5 -13 5 -14 0 -19 -2 -12 -5z"/>
<path d="M2398 73 c7 -3 16 -2 19 1 4 3 -2 6 -13 5 -11 0 -14 -3 -6 -6z"/>
<path d="M1348 63 c6 -2 18 -2 25 0 6 3 1 5 -13 5 -14 0 -19 -2 -12 -5z"/>
<path d="M2358 63 c7 -3 16 -2 19 1 4 3 -2 6 -13 5 -11 0 -14 -3 -6 -6z"/>
<path d="M1398 53 c6 -2 18 -2 25 0 6 3 1 5 -13 5 -14 0 -19 -2 -12 -5z"/>
<path d="M2298 53 c6 -2 18 -2 25 0 6 3 1 5 -13 5 -14 0 -19 -2 -12 -5z"/>
<path d="M1453 43 c9 -2 25 -2 35 0 9 3 1 5 -18 5 -19 0 -27 -2 -17 -5z"/>
<path d="M2248 43 c6 -2 18 -2 25 0 6 3 1 5 -13 5 -14 0 -19 -2 -12 -5z"/>
<path d="M1523 33 c9 -2 25 -2 35 0 9 3 1 5 -18 5 -19 0 -27 -2 -17 -5z"/>
<path d="M2183 33 c9 -2 23 -2 30 0 6 3 -1 5 -18 5 -16 0 -22 -2 -12 -5z"/>
<path d="M1598 23 c12 -2 32 -2 45 0 12 2 2 4 -23 4 -25 0 -35 -2 -22 -4z"/>
<path d="M2098 23 c12 -2 30 -2 40 0 9 3 -1 5 -23 4 -22 0 -30 -2 -17 -4z"/>
<path d="M1778 13 c50 -2 134 -2 185 0 50 1 9 3 -93 3 -102 0 -143 -2 -92 -3z"/>
</g>
</svg>
